<mxfile host="Electron" agent="Mozilla/5.0 (Windows NT 10.0; Win64; x64) AppleWebKit/537.36 (KHTML, like Gecko) draw.io/24.7.17 Chrome/128.0.6613.36 Electron/32.0.1 Safari/537.36" version="24.7.17">
  <diagram name="Page-1" id="TesSoZL7Qzbb-49Dvi8w">
    <mxGraphModel dx="2148" dy="1880" grid="1" gridSize="10" guides="1" tooltips="1" connect="1" arrows="1" fold="1" page="1" pageScale="1" pageWidth="850" pageHeight="1100" math="0" shadow="0">
      <root>
        <mxCell id="0" />
        <mxCell id="1" parent="0" />
        <mxCell id="MWaY8iljqtKaQMLSU5T6-1" value="User" style="rounded=1;arcSize=10;whiteSpace=wrap;html=1;align=center;" parent="1" vertex="1">
          <mxGeometry x="110" y="120" width="100" height="40" as="geometry" />
        </mxCell>
        <mxCell id="MWaY8iljqtKaQMLSU5T6-8" value="" style="endArrow=none;html=1;rounded=0;exitX=0.61;exitY=-0.059;exitDx=0;exitDy=0;entryX=0.5;entryY=1;entryDx=0;entryDy=0;entryPerimeter=0;exitPerimeter=0;" parent="1" source="FCDMfgkC4RyhxdJMBdM--14" target="MWaY8iljqtKaQMLSU5T6-7" edge="1">
          <mxGeometry relative="1" as="geometry">
            <mxPoint x="160" y="300" as="sourcePoint" />
            <mxPoint x="360" y="220" as="targetPoint" />
          </mxGeometry>
        </mxCell>
        <mxCell id="MWaY8iljqtKaQMLSU5T6-9" value="" style="endArrow=none;html=1;rounded=0;exitX=0;exitY=0;exitDx=40;exitDy=0;entryX=0.591;entryY=0.959;entryDx=0;entryDy=0;exitPerimeter=0;entryPerimeter=0;" parent="1" source="MWaY8iljqtKaQMLSU5T6-7" target="MWaY8iljqtKaQMLSU5T6-1" edge="1">
          <mxGeometry relative="1" as="geometry">
            <mxPoint x="170" y="310" as="sourcePoint" />
            <mxPoint x="170" y="270" as="targetPoint" />
          </mxGeometry>
        </mxCell>
        <mxCell id="MWaY8iljqtKaQMLSU5T6-11" value="" style="group" parent="1" vertex="1" connectable="0">
          <mxGeometry x="130" y="200" width="80" height="60" as="geometry" />
        </mxCell>
        <mxCell id="MWaY8iljqtKaQMLSU5T6-7" value="" style="verticalLabelPosition=bottom;verticalAlign=top;html=1;shape=mxgraph.basic.acute_triangle;dx=0.5;" parent="MWaY8iljqtKaQMLSU5T6-11" vertex="1">
          <mxGeometry width="80" height="60" as="geometry" />
        </mxCell>
        <mxCell id="MWaY8iljqtKaQMLSU5T6-10" value="ISA" style="text;html=1;align=center;verticalAlign=middle;whiteSpace=wrap;rounded=0;" parent="MWaY8iljqtKaQMLSU5T6-11" vertex="1">
          <mxGeometry x="10" y="20" width="60" height="30" as="geometry" />
        </mxCell>
        <mxCell id="MWaY8iljqtKaQMLSU5T6-14" value="Has" style="shape=rhombus;perimeter=rhombusPerimeter;whiteSpace=wrap;html=1;align=center;" parent="1" vertex="1">
          <mxGeometry x="420" y="100" width="120" height="60" as="geometry" />
        </mxCell>
        <mxCell id="MWaY8iljqtKaQMLSU5T6-15" value="" style="endArrow=none;html=1;rounded=0;exitX=1;exitY=0;exitDx=0;exitDy=0;entryX=0.5;entryY=1;entryDx=0;entryDy=0;endFill=0;startArrow=ERmandOne;startFill=0;" parent="1" source="FCDMfgkC4RyhxdJMBdM--14" target="MWaY8iljqtKaQMLSU5T6-14" edge="1">
          <mxGeometry relative="1" as="geometry">
            <mxPoint x="210" y="320" as="sourcePoint" />
            <mxPoint x="360" y="220" as="targetPoint" />
          </mxGeometry>
        </mxCell>
        <mxCell id="MWaY8iljqtKaQMLSU5T6-16" value="" style="endArrow=ERone;html=1;rounded=0;exitX=0.5;exitY=0;exitDx=0;exitDy=0;entryX=0.408;entryY=0.982;entryDx=0;entryDy=0;endFill=0;entryPerimeter=0;" parent="1" source="MWaY8iljqtKaQMLSU5T6-14" target="FCDMfgkC4RyhxdJMBdM--15" edge="1">
          <mxGeometry relative="1" as="geometry">
            <mxPoint x="220" y="330" as="sourcePoint" />
            <mxPoint x="340" y="210" as="targetPoint" />
          </mxGeometry>
        </mxCell>
        <mxCell id="MWaY8iljqtKaQMLSU5T6-19" value="" style="endArrow=none;html=1;rounded=0;exitX=0.5;exitY=1;exitDx=0;exitDy=0;entryX=0.5;entryY=0;entryDx=0;entryDy=0;" parent="1" source="MWaY8iljqtKaQMLSU5T6-20" target="MWaY8iljqtKaQMLSU5T6-1" edge="1">
          <mxGeometry relative="1" as="geometry">
            <mxPoint x="150" y="60" as="sourcePoint" />
            <mxPoint x="360" y="220" as="targetPoint" />
          </mxGeometry>
        </mxCell>
        <mxCell id="MWaY8iljqtKaQMLSU5T6-20" value="tracking_id" style="ellipse;whiteSpace=wrap;html=1;align=center;fontStyle=4;" parent="1" vertex="1">
          <mxGeometry x="110" y="60" width="100" height="40" as="geometry" />
        </mxCell>
        <mxCell id="MWaY8iljqtKaQMLSU5T6-21" value="account_id" style="ellipse;whiteSpace=wrap;html=1;align=center;fontStyle=4;" parent="1" vertex="1">
          <mxGeometry x="318.33" y="-130" width="100" height="40" as="geometry" />
        </mxCell>
        <mxCell id="MWaY8iljqtKaQMLSU5T6-22" value="" style="endArrow=none;html=1;rounded=0;exitX=0.5;exitY=1;exitDx=0;exitDy=0;entryX=0.5;entryY=0;entryDx=0;entryDy=0;" parent="1" source="MWaY8iljqtKaQMLSU5T6-21" target="FCDMfgkC4RyhxdJMBdM--15" edge="1">
          <mxGeometry relative="1" as="geometry">
            <mxPoint x="180" y="220" as="sourcePoint" />
            <mxPoint x="340" y="170" as="targetPoint" />
          </mxGeometry>
        </mxCell>
        <mxCell id="MWaY8iljqtKaQMLSU5T6-23" value="Credit Card Payment Method" style="rounded=1;arcSize=10;whiteSpace=wrap;html=1;align=center;" parent="1" vertex="1">
          <mxGeometry x="-380" y="50" width="100" height="40" as="geometry" />
        </mxCell>
        <mxCell id="XK1nvMz3jrwBqo_m3qVX-28" style="edgeStyle=orthogonalEdgeStyle;rounded=0;orthogonalLoop=1;jettySize=auto;html=1;exitX=0;exitY=0;exitDx=0;exitDy=0;entryX=0.75;entryY=1;entryDx=0;entryDy=0;endArrow=ERoneToMany;endFill=0;" parent="1" source="MWaY8iljqtKaQMLSU5T6-25" target="XK1nvMz3jrwBqo_m3qVX-4" edge="1">
          <mxGeometry relative="1" as="geometry" />
        </mxCell>
        <mxCell id="XK1nvMz3jrwBqo_m3qVX-29" style="edgeStyle=orthogonalEdgeStyle;rounded=0;orthogonalLoop=1;jettySize=auto;html=1;exitX=1;exitY=0.5;exitDx=0;exitDy=0;endArrow=ERone;endFill=0;entryX=0.158;entryY=0.012;entryDx=0;entryDy=0;entryPerimeter=0;" parent="1" source="MWaY8iljqtKaQMLSU5T6-25" target="FCDMfgkC4RyhxdJMBdM--14" edge="1">
          <mxGeometry relative="1" as="geometry">
            <Array as="points">
              <mxPoint x="-40" y="200" />
              <mxPoint x="120" y="200" />
              <mxPoint x="120" y="280" />
              <mxPoint x="126" y="280" />
            </Array>
            <mxPoint x="110" y="280" as="targetPoint" />
          </mxGeometry>
        </mxCell>
        <mxCell id="MWaY8iljqtKaQMLSU5T6-25" value="Has" style="shape=rhombus;perimeter=rhombusPerimeter;whiteSpace=wrap;html=1;align=center;" parent="1" vertex="1">
          <mxGeometry x="-160" y="120" width="120" height="60" as="geometry" />
        </mxCell>
        <mxCell id="k20uD03Ni8Eal_G298R1-125" style="edgeStyle=orthogonalEdgeStyle;rounded=0;orthogonalLoop=1;jettySize=auto;html=1;exitX=0.5;exitY=1;exitDx=0;exitDy=0;entryX=0;entryY=0;entryDx=0;entryDy=0;endArrow=ERzeroToMany;endFill=0;" edge="1" parent="1" source="FCDMfgkC4RyhxdJMBdM--3" target="k20uD03Ni8Eal_G298R1-8">
          <mxGeometry relative="1" as="geometry">
            <Array as="points">
              <mxPoint x="-130" y="590" />
              <mxPoint x="-130" y="680" />
              <mxPoint x="60" y="680" />
            </Array>
          </mxGeometry>
        </mxCell>
        <mxCell id="k20uD03Ni8Eal_G298R1-126" style="edgeStyle=orthogonalEdgeStyle;rounded=0;orthogonalLoop=1;jettySize=auto;html=1;exitX=0.75;exitY=0;exitDx=0;exitDy=0;entryX=0;entryY=1;entryDx=0;entryDy=0;endArrow=ERzeroToMany;endFill=0;" edge="1" parent="1" source="FCDMfgkC4RyhxdJMBdM--3" target="FCDMfgkC4RyhxdJMBdM--14">
          <mxGeometry relative="1" as="geometry">
            <Array as="points">
              <mxPoint x="-180" y="540" />
              <mxPoint x="-180" y="390" />
              <mxPoint x="50" y="390" />
              <mxPoint x="50" y="340" />
            </Array>
          </mxGeometry>
        </mxCell>
        <mxCell id="FCDMfgkC4RyhxdJMBdM--3" value="GameOwnership" style="shape=associativeEntity;whiteSpace=wrap;html=1;align=center;" parent="1" vertex="1">
          <mxGeometry x="-208.32999999999998" y="540" width="116.67" height="50" as="geometry" />
        </mxCell>
        <mxCell id="k20uD03Ni8Eal_G298R1-118" style="edgeStyle=orthogonalEdgeStyle;rounded=0;orthogonalLoop=1;jettySize=auto;html=1;exitX=0;exitY=0.5;exitDx=0;exitDy=0;entryX=1;entryY=1;entryDx=0;entryDy=0;endArrow=none;endFill=0;" edge="1" parent="1" source="FCDMfgkC4RyhxdJMBdM--11" target="k20uD03Ni8Eal_G298R1-8">
          <mxGeometry relative="1" as="geometry">
            <Array as="points">
              <mxPoint x="228" y="770" />
            </Array>
          </mxGeometry>
        </mxCell>
        <mxCell id="FCDMfgkC4RyhxdJMBdM--11" value="game_id" style="ellipse;whiteSpace=wrap;html=1;align=center;fontStyle=4;" parent="1" vertex="1">
          <mxGeometry x="228.32999999999998" y="800" width="100" height="40" as="geometry" />
        </mxCell>
        <mxCell id="FCDMfgkC4RyhxdJMBdM--14" value="Registered User" style="shape=ext;margin=3;double=1;whiteSpace=wrap;html=1;align=center;" parent="1" vertex="1">
          <mxGeometry x="109.99999999999999" y="300" width="100" height="40" as="geometry" />
        </mxCell>
        <mxCell id="FCDMfgkC4RyhxdJMBdM--15" value="Account" style="shape=ext;margin=3;double=1;whiteSpace=wrap;html=1;align=center;" parent="1" vertex="1">
          <mxGeometry x="440" y="40" width="100" height="40" as="geometry" />
        </mxCell>
        <mxCell id="FCDMfgkC4RyhxdJMBdM--16" value="best friend of" style="shape=rhombus;perimeter=rhombusPerimeter;whiteSpace=wrap;html=1;align=center;" parent="1" vertex="1">
          <mxGeometry x="-20" y="210" width="120" height="60" as="geometry" />
        </mxCell>
        <mxCell id="FCDMfgkC4RyhxdJMBdM--17" value="" style="endArrow=none;html=1;rounded=0;entryX=1;entryY=0.5;entryDx=0;entryDy=0;" parent="1" target="FCDMfgkC4RyhxdJMBdM--16" edge="1">
          <mxGeometry relative="1" as="geometry">
            <mxPoint x="110" y="310" as="sourcePoint" />
            <mxPoint x="300" y="500" as="targetPoint" />
          </mxGeometry>
        </mxCell>
        <mxCell id="FCDMfgkC4RyhxdJMBdM--18" value="" style="endArrow=none;html=1;rounded=0;entryX=0.5;entryY=1;entryDx=0;entryDy=0;" parent="1" target="FCDMfgkC4RyhxdJMBdM--16" edge="1">
          <mxGeometry relative="1" as="geometry">
            <mxPoint x="110" y="310" as="sourcePoint" />
            <mxPoint x="300" y="500" as="targetPoint" />
          </mxGeometry>
        </mxCell>
        <mxCell id="FCDMfgkC4RyhxdJMBdM--19" value="Genre" style="rounded=1;arcSize=10;whiteSpace=wrap;html=1;align=center;" parent="1" vertex="1">
          <mxGeometry x="1010" y="290" width="100" height="40" as="geometry" />
        </mxCell>
        <mxCell id="k20uD03Ni8Eal_G298R1-116" style="edgeStyle=orthogonalEdgeStyle;rounded=0;orthogonalLoop=1;jettySize=auto;html=1;exitX=0;exitY=0.5;exitDx=0;exitDy=0;endArrow=ERzeroToMany;endFill=0;entryX=1;entryY=0.75;entryDx=0;entryDy=0;" edge="1" parent="1" source="FCDMfgkC4RyhxdJMBdM--23" target="k20uD03Ni8Eal_G298R1-8">
          <mxGeometry relative="1" as="geometry">
            <mxPoint x="180" y="760" as="targetPoint" />
            <Array as="points" />
          </mxGeometry>
        </mxCell>
        <mxCell id="k20uD03Ni8Eal_G298R1-117" style="edgeStyle=orthogonalEdgeStyle;rounded=0;orthogonalLoop=1;jettySize=auto;html=1;exitX=0.75;exitY=0;exitDx=0;exitDy=0;entryX=0.5;entryY=1;entryDx=0;entryDy=0;endArrow=ERoneToMany;endFill=0;" edge="1" parent="1" source="FCDMfgkC4RyhxdJMBdM--23" target="FCDMfgkC4RyhxdJMBdM--19">
          <mxGeometry relative="1" as="geometry" />
        </mxCell>
        <mxCell id="FCDMfgkC4RyhxdJMBdM--23" value="GameGenre" style="shape=associativeEntity;whiteSpace=wrap;html=1;align=center;" parent="1" vertex="1">
          <mxGeometry x="1060" y="730" width="140" height="60" as="geometry" />
        </mxCell>
        <mxCell id="k20uD03Ni8Eal_G298R1-47" style="edgeStyle=orthogonalEdgeStyle;rounded=0;orthogonalLoop=1;jettySize=auto;html=1;exitX=0;exitY=0;exitDx=0;exitDy=0;entryX=0.75;entryY=1;entryDx=0;entryDy=0;endArrow=ERzeroToMany;endFill=0;" edge="1" parent="1" source="k20uD03Ni8Eal_G298R1-107" target="XK1nvMz3jrwBqo_m3qVX-112">
          <mxGeometry relative="1" as="geometry">
            <mxPoint x="-225" y="670" as="sourcePoint" />
          </mxGeometry>
        </mxCell>
        <mxCell id="k20uD03Ni8Eal_G298R1-48" style="edgeStyle=orthogonalEdgeStyle;rounded=0;orthogonalLoop=1;jettySize=auto;html=1;exitX=1;exitY=1;exitDx=0;exitDy=0;entryX=0;entryY=0.25;entryDx=0;entryDy=0;endArrow=ERzeroToOne;endFill=0;" edge="1" parent="1" source="k20uD03Ni8Eal_G298R1-107" target="k20uD03Ni8Eal_G298R1-8">
          <mxGeometry relative="1" as="geometry">
            <mxPoint x="-155" y="730" as="sourcePoint" />
          </mxGeometry>
        </mxCell>
        <mxCell id="XgH2uq8EYfYxta0Vq5KT-13" value="Platform" style="rounded=1;arcSize=10;whiteSpace=wrap;html=1;align=center;" parent="1" vertex="1">
          <mxGeometry x="-390" y="920" width="100" height="40" as="geometry" />
        </mxCell>
        <mxCell id="XgH2uq8EYfYxta0Vq5KT-18" value="A Part Of" style="shape=rhombus;perimeter=rhombusPerimeter;whiteSpace=wrap;html=1;align=center;" parent="1" vertex="1">
          <mxGeometry x="-420" y="250" width="120" height="60" as="geometry" />
        </mxCell>
        <mxCell id="XgH2uq8EYfYxta0Vq5KT-19" value="" style="edgeStyle=entityRelationEdgeStyle;fontSize=12;html=1;endArrow=ERzeroToOne;rounded=0;entryX=0;entryY=0.75;entryDx=0;entryDy=0;exitX=0.5;exitY=0;exitDx=0;exitDy=0;endFill=0;" parent="1" source="XgH2uq8EYfYxta0Vq5KT-18" target="k20uD03Ni8Eal_G298R1-101" edge="1">
          <mxGeometry width="100" height="100" relative="1" as="geometry">
            <mxPoint x="-200" y="470" as="sourcePoint" />
            <mxPoint x="-350" y="190" as="targetPoint" />
          </mxGeometry>
        </mxCell>
        <mxCell id="XgH2uq8EYfYxta0Vq5KT-20" value="" style="edgeStyle=entityRelationEdgeStyle;fontSize=12;html=1;endArrow=ERzeroToMany;endFill=0;rounded=0;startArrow=none;startFill=0;entryX=0;entryY=0.25;entryDx=0;entryDy=0;exitX=0.5;exitY=1;exitDx=0;exitDy=0;" parent="1" source="XgH2uq8EYfYxta0Vq5KT-18" target="XK1nvMz3jrwBqo_m3qVX-112" edge="1">
          <mxGeometry width="100" height="100" relative="1" as="geometry">
            <mxPoint x="-270" y="320" as="sourcePoint" />
            <mxPoint x="-300" y="390" as="targetPoint" />
            <Array as="points">
              <mxPoint x="-250" y="320" />
              <mxPoint x="-210" y="360" />
              <mxPoint x="-250" y="360" />
              <mxPoint x="-260" y="370" />
              <mxPoint x="-240" y="350" />
              <mxPoint x="-240" y="320" />
              <mxPoint x="-240" y="360" />
              <mxPoint x="-230" y="335" />
              <mxPoint x="-260" y="370" />
              <mxPoint x="-200" y="380" />
              <mxPoint x="-270" y="290" />
            </Array>
          </mxGeometry>
        </mxCell>
        <mxCell id="XgH2uq8EYfYxta0Vq5KT-22" value="" style="edgeStyle=entityRelationEdgeStyle;fontSize=12;html=1;endArrow=ERoneToMany;endFill=0;rounded=0;entryX=0;entryY=0.5;entryDx=0;entryDy=0;exitX=1;exitY=1;exitDx=0;exitDy=0;" parent="1" source="k20uD03Ni8Eal_G298R1-97" target="FCDMfgkC4RyhxdJMBdM--14" edge="1">
          <mxGeometry width="100" height="100" relative="1" as="geometry">
            <mxPoint x="-150" y="250" as="sourcePoint" />
            <mxPoint x="50" y="270" as="targetPoint" />
          </mxGeometry>
        </mxCell>
        <mxCell id="XgH2uq8EYfYxta0Vq5KT-24" value="" style="edgeStyle=entityRelationEdgeStyle;fontSize=12;html=1;endArrow=ERzeroToOne;endFill=0;rounded=0;exitX=0;exitY=0;exitDx=0;exitDy=0;entryX=1;entryY=0.25;entryDx=0;entryDy=0;" parent="1" source="k20uD03Ni8Eal_G298R1-97" target="k20uD03Ni8Eal_G298R1-101" edge="1">
          <mxGeometry width="100" height="100" relative="1" as="geometry">
            <mxPoint x="-150" y="190" as="sourcePoint" />
            <mxPoint x="-250" y="180" as="targetPoint" />
          </mxGeometry>
        </mxCell>
        <mxCell id="XgH2uq8EYfYxta0Vq5KT-28" value="Forum" style="rounded=1;arcSize=10;whiteSpace=wrap;html=1;align=center;" parent="1" vertex="1">
          <mxGeometry x="1730" y="240" width="100" height="40" as="geometry" />
        </mxCell>
        <mxCell id="XgH2uq8EYfYxta0Vq5KT-30" value="Posted To" style="shape=rhombus;perimeter=rhombusPerimeter;whiteSpace=wrap;html=1;align=center;" parent="1" vertex="1">
          <mxGeometry x="1490" y="250" width="120" height="60" as="geometry" />
        </mxCell>
        <mxCell id="XgH2uq8EYfYxta0Vq5KT-31" value="" style="edgeStyle=entityRelationEdgeStyle;fontSize=12;html=1;endArrow=ERzeroToMany;endFill=1;rounded=0;exitX=0;exitY=0;exitDx=0;exitDy=0;entryX=1;entryY=0.75;entryDx=0;entryDy=0;entryPerimeter=0;" parent="1" source="XgH2uq8EYfYxta0Vq5KT-30" target="XK1nvMz3jrwBqo_m3qVX-82" edge="1">
          <mxGeometry width="100" height="100" relative="1" as="geometry">
            <mxPoint x="550" y="470" as="sourcePoint" />
            <mxPoint x="1325" y="220" as="targetPoint" />
          </mxGeometry>
        </mxCell>
        <mxCell id="XgH2uq8EYfYxta0Vq5KT-32" value="" style="edgeStyle=entityRelationEdgeStyle;fontSize=12;html=1;endArrow=none;endFill=0;rounded=0;entryX=1;entryY=1;entryDx=0;entryDy=0;exitX=0;exitY=0.5;exitDx=0;exitDy=0;startArrow=ERmandOne;startFill=0;" parent="1" source="XgH2uq8EYfYxta0Vq5KT-28" target="XgH2uq8EYfYxta0Vq5KT-30" edge="1">
          <mxGeometry width="100" height="100" relative="1" as="geometry">
            <mxPoint x="990" y="460" as="sourcePoint" />
            <mxPoint x="1090" y="360" as="targetPoint" />
          </mxGeometry>
        </mxCell>
        <mxCell id="XgH2uq8EYfYxta0Vq5KT-34" value="Child Of" style="shape=rhombus;perimeter=rhombusPerimeter;whiteSpace=wrap;html=1;align=center;" parent="1" vertex="1">
          <mxGeometry x="1040" y="80" width="120" height="60" as="geometry" />
        </mxCell>
        <mxCell id="XgH2uq8EYfYxta0Vq5KT-35" value="" style="edgeStyle=entityRelationEdgeStyle;fontSize=12;html=1;endArrow=ERzeroToMany;endFill=1;rounded=0;exitX=0.5;exitY=0;exitDx=0;exitDy=0;entryX=1;entryY=0.75;entryDx=0;entryDy=0;" parent="1" source="XgH2uq8EYfYxta0Vq5KT-34" target="XK1nvMz3jrwBqo_m3qVX-94" edge="1">
          <mxGeometry width="100" height="100" relative="1" as="geometry">
            <mxPoint x="590" y="370" as="sourcePoint" />
            <mxPoint x="690" y="50" as="targetPoint" />
          </mxGeometry>
        </mxCell>
        <mxCell id="XgH2uq8EYfYxta0Vq5KT-36" value="" style="edgeStyle=entityRelationEdgeStyle;fontSize=12;html=1;endArrow=ERmandOne;endFill=0;rounded=0;entryX=0;entryY=0;entryDx=0;entryDy=0;exitX=0.5;exitY=1;exitDx=0;exitDy=0;" parent="1" source="XgH2uq8EYfYxta0Vq5KT-34" target="XK1nvMz3jrwBqo_m3qVX-82" edge="1">
          <mxGeometry width="100" height="100" relative="1" as="geometry">
            <mxPoint x="590" y="370" as="sourcePoint" />
            <mxPoint x="1225" y="200" as="targetPoint" />
          </mxGeometry>
        </mxCell>
        <mxCell id="XgH2uq8EYfYxta0Vq5KT-37" value="Parent Of" style="shape=rhombus;perimeter=rhombusPerimeter;whiteSpace=wrap;html=1;align=center;" parent="1" vertex="1">
          <mxGeometry x="500" y="-25" width="100" height="50" as="geometry" />
        </mxCell>
        <mxCell id="XgH2uq8EYfYxta0Vq5KT-38" value="" style="endArrow=none;html=1;rounded=0;exitX=0.5;exitY=1;exitDx=0;exitDy=0;entryX=0;entryY=0.5;entryDx=0;entryDy=0;" parent="1" source="XgH2uq8EYfYxta0Vq5KT-37" target="XK1nvMz3jrwBqo_m3qVX-94" edge="1">
          <mxGeometry relative="1" as="geometry">
            <mxPoint x="480" y="320" as="sourcePoint" />
            <mxPoint x="590" y="50" as="targetPoint" />
          </mxGeometry>
        </mxCell>
        <mxCell id="XgH2uq8EYfYxta0Vq5KT-39" value="" style="endArrow=none;html=1;rounded=0;exitX=1;exitY=0.5;exitDx=0;exitDy=0;entryX=0.25;entryY=0;entryDx=0;entryDy=0;" parent="1" source="XgH2uq8EYfYxta0Vq5KT-37" target="XK1nvMz3jrwBqo_m3qVX-94" edge="1">
          <mxGeometry relative="1" as="geometry">
            <mxPoint x="480" y="320" as="sourcePoint" />
            <mxPoint x="615" y="30" as="targetPoint" />
          </mxGeometry>
        </mxCell>
        <mxCell id="XgH2uq8EYfYxta0Vq5KT-40" value="Created By" style="shape=rhombus;perimeter=rhombusPerimeter;whiteSpace=wrap;html=1;align=center;" parent="1" vertex="1">
          <mxGeometry x="450" y="160" width="120" height="60" as="geometry" />
        </mxCell>
        <mxCell id="XgH2uq8EYfYxta0Vq5KT-41" value="" style="edgeStyle=entityRelationEdgeStyle;fontSize=12;html=1;endArrow=ERmandOne;endFill=0;rounded=0;exitX=0;exitY=1;exitDx=0;exitDy=0;entryX=1;entryY=0.25;entryDx=0;entryDy=0;" parent="1" source="XgH2uq8EYfYxta0Vq5KT-40" target="FCDMfgkC4RyhxdJMBdM--14" edge="1">
          <mxGeometry width="100" height="100" relative="1" as="geometry">
            <mxPoint x="280" y="370" as="sourcePoint" />
            <mxPoint x="380" y="270" as="targetPoint" />
          </mxGeometry>
        </mxCell>
        <mxCell id="XgH2uq8EYfYxta0Vq5KT-42" value="" style="edgeStyle=entityRelationEdgeStyle;fontSize=12;html=1;endArrow=ERzeroToMany;endFill=1;rounded=0;exitX=0.5;exitY=0;exitDx=0;exitDy=0;entryX=0;entryY=0.75;entryDx=0;entryDy=0;" parent="1" source="XgH2uq8EYfYxta0Vq5KT-40" target="XK1nvMz3jrwBqo_m3qVX-94" edge="1">
          <mxGeometry width="100" height="100" relative="1" as="geometry">
            <mxPoint x="430" y="295" as="sourcePoint" />
            <mxPoint x="590" y="60" as="targetPoint" />
          </mxGeometry>
        </mxCell>
        <mxCell id="XgH2uq8EYfYxta0Vq5KT-43" value="Created By" style="shape=rhombus;perimeter=rhombusPerimeter;whiteSpace=wrap;html=1;align=center;" parent="1" vertex="1">
          <mxGeometry x="840" y="120" width="120" height="60" as="geometry" />
        </mxCell>
        <mxCell id="XgH2uq8EYfYxta0Vq5KT-44" value="" style="edgeStyle=entityRelationEdgeStyle;fontSize=12;html=1;endArrow=ERmandOne;endFill=0;rounded=0;entryX=1;entryY=0.5;entryDx=0;entryDy=0;exitX=0;exitY=0;exitDx=0;exitDy=0;" parent="1" source="XgH2uq8EYfYxta0Vq5KT-43" target="FCDMfgkC4RyhxdJMBdM--14" edge="1">
          <mxGeometry width="100" height="100" relative="1" as="geometry">
            <mxPoint x="390" y="390" as="sourcePoint" />
            <mxPoint x="210" y="340" as="targetPoint" />
            <Array as="points">
              <mxPoint x="390" y="370" />
            </Array>
          </mxGeometry>
        </mxCell>
        <mxCell id="XgH2uq8EYfYxta0Vq5KT-45" value="" style="edgeStyle=entityRelationEdgeStyle;fontSize=12;html=1;endArrow=ERzeroToMany;endFill=1;rounded=0;exitX=1;exitY=0.5;exitDx=0;exitDy=0;entryX=0;entryY=0.75;entryDx=0;entryDy=0;" parent="1" source="XgH2uq8EYfYxta0Vq5KT-43" target="XK1nvMz3jrwBqo_m3qVX-82" edge="1">
          <mxGeometry width="100" height="100" relative="1" as="geometry">
            <mxPoint x="408" y="210" as="sourcePoint" />
            <mxPoint x="1225" y="220" as="targetPoint" />
          </mxGeometry>
        </mxCell>
        <mxCell id="3gaE-KXDp2KInn-WR0ou-1" value="Available On" style="shape=associativeEntity;whiteSpace=wrap;html=1;align=center;" parent="1" vertex="1">
          <mxGeometry x="-240" y="840" width="140" height="60" as="geometry" />
        </mxCell>
        <mxCell id="3gaE-KXDp2KInn-WR0ou-2" value="" style="edgeStyle=entityRelationEdgeStyle;fontSize=12;html=1;endArrow=ERoneToMany;endFill=0;rounded=0;exitX=0;exitY=0.5;exitDx=0;exitDy=0;entryX=1;entryY=0.75;entryDx=0;entryDy=0;" parent="1" source="3gaE-KXDp2KInn-WR0ou-1" target="XgH2uq8EYfYxta0Vq5KT-13" edge="1">
          <mxGeometry width="100" height="100" relative="1" as="geometry">
            <mxPoint x="-260" y="950" as="sourcePoint" />
            <mxPoint x="-160" y="850" as="targetPoint" />
          </mxGeometry>
        </mxCell>
        <mxCell id="3gaE-KXDp2KInn-WR0ou-3" value="" style="edgeStyle=entityRelationEdgeStyle;fontSize=12;html=1;endArrow=ERzeroToMany;endFill=1;rounded=0;exitX=1;exitY=0.5;exitDx=0;exitDy=0;entryX=0;entryY=0.5;entryDx=0;entryDy=0;" parent="1" source="3gaE-KXDp2KInn-WR0ou-1" target="k20uD03Ni8Eal_G298R1-8" edge="1">
          <mxGeometry width="100" height="100" relative="1" as="geometry">
            <mxPoint x="-100" y="670" as="sourcePoint" />
            <mxPoint x="110" y="770" as="targetPoint" />
          </mxGeometry>
        </mxCell>
        <mxCell id="3gaE-KXDp2KInn-WR0ou-4" value="Developer" style="rounded=1;arcSize=10;whiteSpace=wrap;html=1;align=center;" parent="1" vertex="1">
          <mxGeometry x="-30" y="1190" width="100" height="40" as="geometry" />
        </mxCell>
        <mxCell id="9mZkh-oFc15BfgS--x-H-3" style="edgeStyle=orthogonalEdgeStyle;rounded=0;orthogonalLoop=1;jettySize=auto;html=1;exitX=0.5;exitY=1;exitDx=0;exitDy=0;entryX=0.25;entryY=0;entryDx=0;entryDy=0;endArrow=ERone;endFill=0;" parent="1" source="3gaE-KXDp2KInn-WR0ou-5" target="3gaE-KXDp2KInn-WR0ou-4" edge="1">
          <mxGeometry relative="1" as="geometry" />
        </mxCell>
        <mxCell id="3gaE-KXDp2KInn-WR0ou-5" value="Develops" style="shape=rhombus;perimeter=rhombusPerimeter;whiteSpace=wrap;html=1;align=center;" parent="1" vertex="1">
          <mxGeometry x="-40" y="1060" width="120" height="60" as="geometry" />
        </mxCell>
        <mxCell id="9mZkh-oFc15BfgS--x-H-10" style="edgeStyle=orthogonalEdgeStyle;rounded=0;orthogonalLoop=1;jettySize=auto;html=1;exitX=0.5;exitY=1;exitDx=0;exitDy=0;entryX=1;entryY=0.75;entryDx=0;entryDy=0;endArrow=ERone;endFill=0;" parent="1" source="3gaE-KXDp2KInn-WR0ou-9" target="3gaE-KXDp2KInn-WR0ou-40" edge="1">
          <mxGeometry relative="1" as="geometry">
            <mxPoint x="275" y="1130" as="targetPoint" />
          </mxGeometry>
        </mxCell>
        <mxCell id="3gaE-KXDp2KInn-WR0ou-9" value="Publishes" style="shape=rhombus;perimeter=rhombusPerimeter;whiteSpace=wrap;html=1;align=center;" parent="1" vertex="1">
          <mxGeometry x="160" y="1060" width="120" height="60" as="geometry" />
        </mxCell>
        <mxCell id="3gaE-KXDp2KInn-WR0ou-47" style="edgeStyle=orthogonalEdgeStyle;rounded=0;orthogonalLoop=1;jettySize=auto;html=1;exitX=1;exitY=0.25;exitDx=0;exitDy=0;entryX=0;entryY=1;entryDx=0;entryDy=0;endArrow=none;endFill=0;startArrow=ERzeroToMany;startFill=0;" parent="1" source="XK1nvMz3jrwBqo_m3qVX-53" target="3gaE-KXDp2KInn-WR0ou-46" edge="1">
          <mxGeometry relative="1" as="geometry">
            <mxPoint x="845" y="480" as="sourcePoint" />
          </mxGeometry>
        </mxCell>
        <mxCell id="9mZkh-oFc15BfgS--x-H-21" style="edgeStyle=orthogonalEdgeStyle;rounded=0;orthogonalLoop=1;jettySize=auto;html=1;exitX=0.25;exitY=1;exitDx=0;exitDy=0;endArrow=ERoneToMany;endFill=0;entryX=1;entryY=0.25;entryDx=0;entryDy=0;" parent="1" source="3gaE-KXDp2KInn-WR0ou-13" target="k20uD03Ni8Eal_G298R1-8" edge="1">
          <mxGeometry relative="1" as="geometry">
            <mxPoint x="190" y="740" as="targetPoint" />
            <Array as="points">
              <mxPoint x="835" y="740" />
            </Array>
          </mxGeometry>
        </mxCell>
        <mxCell id="9mZkh-oFc15BfgS--x-H-27" style="edgeStyle=orthogonalEdgeStyle;rounded=0;orthogonalLoop=1;jettySize=auto;html=1;exitX=0.75;exitY=0;exitDx=0;exitDy=0;entryX=0.75;entryY=1;entryDx=0;entryDy=0;endArrow=ERzeroToMany;endFill=0;" parent="1" source="3gaE-KXDp2KInn-WR0ou-13" target="XK1nvMz3jrwBqo_m3qVX-53" edge="1">
          <mxGeometry relative="1" as="geometry">
            <mxPoint x="795" y="520" as="targetPoint" />
          </mxGeometry>
        </mxCell>
        <mxCell id="3gaE-KXDp2KInn-WR0ou-13" value="GameBundle" style="shape=associativeEntity;whiteSpace=wrap;html=1;align=center;" parent="1" vertex="1">
          <mxGeometry x="800" y="630" width="140" height="60" as="geometry" />
        </mxCell>
        <mxCell id="9mZkh-oFc15BfgS--x-H-20" style="edgeStyle=orthogonalEdgeStyle;rounded=0;orthogonalLoop=1;jettySize=auto;html=1;exitX=0.25;exitY=1;exitDx=0;exitDy=0;entryX=0.5;entryY=0;entryDx=0;entryDy=0;endArrow=ERoneToMany;endFill=0;" parent="1" source="3gaE-KXDp2KInn-WR0ou-17" target="k20uD03Ni8Eal_G298R1-8" edge="1">
          <mxGeometry relative="1" as="geometry">
            <mxPoint x="135" y="750" as="targetPoint" />
          </mxGeometry>
        </mxCell>
        <mxCell id="9mZkh-oFc15BfgS--x-H-36" style="edgeStyle=orthogonalEdgeStyle;rounded=0;orthogonalLoop=1;jettySize=auto;html=1;exitX=0.25;exitY=0;exitDx=0;exitDy=0;entryX=0.5;entryY=1;entryDx=0;entryDy=0;endArrow=ERzeroToMany;endFill=0;" parent="1" source="3gaE-KXDp2KInn-WR0ou-17" target="XK1nvMz3jrwBqo_m3qVX-60" edge="1">
          <mxGeometry relative="1" as="geometry">
            <mxPoint x="120" y="540" as="targetPoint" />
          </mxGeometry>
        </mxCell>
        <mxCell id="3gaE-KXDp2KInn-WR0ou-17" value="GameCollection" style="shape=associativeEntity;whiteSpace=wrap;html=1;align=center;" parent="1" vertex="1">
          <mxGeometry x="80" y="600" width="140" height="60" as="geometry" />
        </mxCell>
        <mxCell id="3gaE-KXDp2KInn-WR0ou-20" value="Marketplace" style="rounded=1;arcSize=10;whiteSpace=wrap;html=1;align=center;" parent="1" vertex="1">
          <mxGeometry x="440" y="510" width="100" height="40" as="geometry" />
        </mxCell>
        <mxCell id="9mZkh-oFc15BfgS--x-H-25" style="edgeStyle=orthogonalEdgeStyle;rounded=0;orthogonalLoop=1;jettySize=auto;html=1;exitX=0.5;exitY=1;exitDx=0;exitDy=0;entryX=0.75;entryY=0;entryDx=0;entryDy=0;endArrow=ERzeroToMany;endFill=0;" parent="1" source="3gaE-KXDp2KInn-WR0ou-22" target="k20uD03Ni8Eal_G298R1-8" edge="1">
          <mxGeometry relative="1" as="geometry">
            <mxPoint x="185" y="750" as="targetPoint" />
            <Array as="points">
              <mxPoint x="660" y="710" />
              <mxPoint x="135" y="710" />
            </Array>
          </mxGeometry>
        </mxCell>
        <mxCell id="3gaE-KXDp2KInn-WR0ou-22" value="GameMarket" style="shape=associativeEntity;whiteSpace=wrap;html=1;align=center;" parent="1" vertex="1">
          <mxGeometry x="590" y="590" width="140" height="60" as="geometry" />
        </mxCell>
        <mxCell id="3gaE-KXDp2KInn-WR0ou-25" value="Favorited By" style="shape=rhombus;perimeter=rhombusPerimeter;whiteSpace=wrap;html=1;align=center;" parent="1" vertex="1">
          <mxGeometry x="760" y="170" width="120" height="60" as="geometry" />
        </mxCell>
        <mxCell id="3gaE-KXDp2KInn-WR0ou-26" value="" style="edgeStyle=entityRelationEdgeStyle;fontSize=12;html=1;endArrow=ERzeroToOne;endFill=0;rounded=0;exitX=1;exitY=1;exitDx=0;exitDy=0;entryX=0;entryY=0.25;entryDx=0;entryDy=0;" parent="1" source="3gaE-KXDp2KInn-WR0ou-25" target="FCDMfgkC4RyhxdJMBdM--19" edge="1">
          <mxGeometry width="100" height="100" relative="1" as="geometry">
            <mxPoint x="357.5" y="430" as="sourcePoint" />
            <mxPoint x="482.5" y="450" as="targetPoint" />
          </mxGeometry>
        </mxCell>
        <mxCell id="3gaE-KXDp2KInn-WR0ou-27" value="" style="edgeStyle=entityRelationEdgeStyle;fontSize=12;html=1;endArrow=ERzeroToMany;endFill=1;rounded=0;exitX=0;exitY=0.5;exitDx=0;exitDy=0;entryX=1;entryY=0.75;entryDx=0;entryDy=0;" parent="1" source="3gaE-KXDp2KInn-WR0ou-25" target="FCDMfgkC4RyhxdJMBdM--14" edge="1">
          <mxGeometry width="100" height="100" relative="1" as="geometry">
            <mxPoint x="310" y="370" as="sourcePoint" />
            <mxPoint x="410" y="270" as="targetPoint" />
          </mxGeometry>
        </mxCell>
        <mxCell id="3gaE-KXDp2KInn-WR0ou-33" style="edgeStyle=orthogonalEdgeStyle;rounded=0;orthogonalLoop=1;jettySize=auto;html=1;exitX=0.5;exitY=0;exitDx=0;exitDy=0;entryX=0.75;entryY=1;entryDx=0;entryDy=0;endArrow=ERzeroToMany;endFill=0;" parent="1" source="3gaE-KXDp2KInn-WR0ou-35" target="FCDMfgkC4RyhxdJMBdM--19" edge="1">
          <mxGeometry relative="1" as="geometry">
            <mxPoint x="1060" y="430" as="sourcePoint" />
          </mxGeometry>
        </mxCell>
        <mxCell id="9mZkh-oFc15BfgS--x-H-2" style="edgeStyle=orthogonalEdgeStyle;rounded=0;orthogonalLoop=1;jettySize=auto;html=1;exitX=0.25;exitY=1;exitDx=0;exitDy=0;entryX=1;entryY=0.5;entryDx=0;entryDy=0;endArrow=ERzeroToMany;endFill=0;" parent="1" source="3gaE-KXDp2KInn-WR0ou-35" target="3gaE-KXDp2KInn-WR0ou-4" edge="1">
          <mxGeometry relative="1" as="geometry" />
        </mxCell>
        <mxCell id="3gaE-KXDp2KInn-WR0ou-35" value="DeveloperGenre" style="shape=associativeEntity;whiteSpace=wrap;html=1;align=center;" parent="1" vertex="1">
          <mxGeometry x="1185" y="360" width="140" height="60" as="geometry" />
        </mxCell>
        <mxCell id="3gaE-KXDp2KInn-WR0ou-37" style="edgeStyle=orthogonalEdgeStyle;rounded=0;orthogonalLoop=1;jettySize=auto;html=1;exitX=0.5;exitY=1;exitDx=0;exitDy=0;" parent="1" source="3gaE-KXDp2KInn-WR0ou-4" target="3gaE-KXDp2KInn-WR0ou-4" edge="1">
          <mxGeometry relative="1" as="geometry" />
        </mxCell>
        <mxCell id="3gaE-KXDp2KInn-WR0ou-40" value="Publisher" style="rounded=1;arcSize=10;whiteSpace=wrap;html=1;align=center;" parent="1" vertex="1">
          <mxGeometry x="-30" y="1240" width="100" height="40" as="geometry" />
        </mxCell>
        <mxCell id="3gaE-KXDp2KInn-WR0ou-42" style="edgeStyle=orthogonalEdgeStyle;rounded=0;orthogonalLoop=1;jettySize=auto;html=1;exitX=0.5;exitY=1;exitDx=0;exitDy=0;entryX=1;entryY=0.25;entryDx=0;entryDy=0;endArrow=ERzeroToMany;endFill=0;" parent="1" source="3gaE-KXDp2KInn-WR0ou-41" target="3gaE-KXDp2KInn-WR0ou-40" edge="1">
          <mxGeometry relative="1" as="geometry" />
        </mxCell>
        <mxCell id="3gaE-KXDp2KInn-WR0ou-43" style="edgeStyle=orthogonalEdgeStyle;rounded=0;orthogonalLoop=1;jettySize=auto;html=1;exitX=0.5;exitY=0;exitDx=0;exitDy=0;entryX=1;entryY=0.75;entryDx=0;entryDy=0;endArrow=ERzeroToMany;endFill=0;" parent="1" source="3gaE-KXDp2KInn-WR0ou-41" target="FCDMfgkC4RyhxdJMBdM--19" edge="1">
          <mxGeometry relative="1" as="geometry" />
        </mxCell>
        <mxCell id="3gaE-KXDp2KInn-WR0ou-41" value="PublisherGenre" style="shape=associativeEntity;whiteSpace=wrap;html=1;align=center;" parent="1" vertex="1">
          <mxGeometry x="1540" y="435" width="140" height="60" as="geometry" />
        </mxCell>
        <mxCell id="3gaE-KXDp2KInn-WR0ou-48" style="edgeStyle=orthogonalEdgeStyle;rounded=0;orthogonalLoop=1;jettySize=auto;html=1;exitX=1;exitY=0;exitDx=0;exitDy=0;entryX=0.25;entryY=1;entryDx=0;entryDy=0;endArrow=ERzeroToOne;endFill=0;" parent="1" source="3gaE-KXDp2KInn-WR0ou-46" target="FCDMfgkC4RyhxdJMBdM--19" edge="1">
          <mxGeometry relative="1" as="geometry" />
        </mxCell>
        <mxCell id="3gaE-KXDp2KInn-WR0ou-46" value="Focused On" style="shape=rhombus;perimeter=rhombusPerimeter;whiteSpace=wrap;html=1;align=center;" parent="1" vertex="1">
          <mxGeometry x="850" y="410" width="120" height="60" as="geometry" />
        </mxCell>
        <mxCell id="3gaE-KXDp2KInn-WR0ou-51" style="edgeStyle=orthogonalEdgeStyle;rounded=0;orthogonalLoop=1;jettySize=auto;html=1;exitX=0;exitY=0.5;exitDx=0;exitDy=0;entryX=0.75;entryY=0;entryDx=0;entryDy=0;endArrow=ERzeroToMany;endFill=0;" parent="1" source="3gaE-KXDp2KInn-WR0ou-50" target="XK1nvMz3jrwBqo_m3qVX-60" edge="1">
          <mxGeometry relative="1" as="geometry">
            <mxPoint x="170" y="520" as="targetPoint" />
            <Array as="points">
              <mxPoint x="163" y="410" />
            </Array>
          </mxGeometry>
        </mxCell>
        <mxCell id="9mZkh-oFc15BfgS--x-H-38" style="edgeStyle=orthogonalEdgeStyle;rounded=0;orthogonalLoop=1;jettySize=auto;html=1;exitX=0.5;exitY=0;exitDx=0;exitDy=0;endArrow=ERzeroToOne;endFill=0;entryX=0;entryY=0.75;entryDx=0;entryDy=0;" parent="1" source="3gaE-KXDp2KInn-WR0ou-50" target="FCDMfgkC4RyhxdJMBdM--19" edge="1">
          <mxGeometry relative="1" as="geometry">
            <mxPoint x="970" y="320" as="targetPoint" />
            <Array as="points">
              <mxPoint x="490" y="455" />
              <mxPoint x="490" y="380" />
              <mxPoint x="950" y="380" />
              <mxPoint x="950" y="320" />
            </Array>
          </mxGeometry>
        </mxCell>
        <mxCell id="3gaE-KXDp2KInn-WR0ou-50" value="Focused On" style="shape=rhombus;perimeter=rhombusPerimeter;whiteSpace=wrap;html=1;align=center;" parent="1" vertex="1">
          <mxGeometry x="300" y="380" width="120" height="60" as="geometry" />
        </mxCell>
        <mxCell id="9mZkh-oFc15BfgS--x-H-16" style="edgeStyle=orthogonalEdgeStyle;rounded=0;orthogonalLoop=1;jettySize=auto;html=1;exitX=0;exitY=0.5;exitDx=0;exitDy=0;entryX=0.75;entryY=1;entryDx=0;entryDy=0;endArrow=ERzeroToMany;endFill=0;" parent="1" source="9mZkh-oFc15BfgS--x-H-14" target="XgH2uq8EYfYxta0Vq5KT-13" edge="1">
          <mxGeometry relative="1" as="geometry" />
        </mxCell>
        <mxCell id="9mZkh-oFc15BfgS--x-H-17" style="edgeStyle=orthogonalEdgeStyle;rounded=0;orthogonalLoop=1;jettySize=auto;html=1;exitX=1;exitY=0.5;exitDx=0;exitDy=0;entryX=0;entryY=0.25;entryDx=0;entryDy=0;endArrow=ERzeroToMany;endFill=0;" parent="1" source="9mZkh-oFc15BfgS--x-H-14" target="3gaE-KXDp2KInn-WR0ou-4" edge="1">
          <mxGeometry relative="1" as="geometry">
            <Array as="points">
              <mxPoint x="-80" y="990" />
              <mxPoint x="-80" y="1200" />
            </Array>
          </mxGeometry>
        </mxCell>
        <mxCell id="9mZkh-oFc15BfgS--x-H-14" value="DeveloperPlatform" style="shape=associativeEntity;whiteSpace=wrap;html=1;align=center;" parent="1" vertex="1">
          <mxGeometry x="-240" y="960" width="140" height="60" as="geometry" />
        </mxCell>
        <mxCell id="9mZkh-oFc15BfgS--x-H-18" style="edgeStyle=orthogonalEdgeStyle;rounded=0;orthogonalLoop=1;jettySize=auto;html=1;exitX=1;exitY=0.25;exitDx=0;exitDy=0;entryX=0;entryY=0.25;entryDx=0;entryDy=0;endArrow=ERzeroToMany;endFill=0;" parent="1" source="9mZkh-oFc15BfgS--x-H-15" target="3gaE-KXDp2KInn-WR0ou-40" edge="1">
          <mxGeometry relative="1" as="geometry">
            <Array as="points">
              <mxPoint x="-100" y="1315" />
              <mxPoint x="-100" y="1250" />
            </Array>
          </mxGeometry>
        </mxCell>
        <mxCell id="9mZkh-oFc15BfgS--x-H-19" style="edgeStyle=orthogonalEdgeStyle;rounded=0;orthogonalLoop=1;jettySize=auto;html=1;exitX=0.138;exitY=0;exitDx=0;exitDy=0;entryX=0.25;entryY=1;entryDx=0;entryDy=0;endArrow=ERzeroToMany;endFill=0;exitPerimeter=0;" parent="1" source="9mZkh-oFc15BfgS--x-H-15" target="XgH2uq8EYfYxta0Vq5KT-13" edge="1">
          <mxGeometry relative="1" as="geometry">
            <Array as="points">
              <mxPoint x="-421" y="980" />
              <mxPoint x="-365" y="980" />
            </Array>
          </mxGeometry>
        </mxCell>
        <mxCell id="9mZkh-oFc15BfgS--x-H-15" value="PublisherPlatform" style="shape=associativeEntity;whiteSpace=wrap;html=1;align=center;" parent="1" vertex="1">
          <mxGeometry x="-440" y="1300" width="140" height="60" as="geometry" />
        </mxCell>
        <mxCell id="9mZkh-oFc15BfgS--x-H-23" style="edgeStyle=orthogonalEdgeStyle;rounded=0;orthogonalLoop=1;jettySize=auto;html=1;exitX=1;exitY=0.25;exitDx=0;exitDy=0;endArrow=ERzeroToMany;endFill=0;entryX=0.25;entryY=0;entryDx=0;entryDy=0;" parent="1" source="9mZkh-oFc15BfgS--x-H-22" target="XK1nvMz3jrwBqo_m3qVX-53" edge="1">
          <mxGeometry relative="1" as="geometry">
            <mxPoint x="795" y="450" as="targetPoint" />
          </mxGeometry>
        </mxCell>
        <mxCell id="9mZkh-oFc15BfgS--x-H-37" style="edgeStyle=orthogonalEdgeStyle;rounded=0;orthogonalLoop=1;jettySize=auto;html=1;exitX=0;exitY=0.5;exitDx=0;exitDy=0;entryX=0.75;entryY=1;entryDx=0;entryDy=0;endArrow=ERzeroToMany;endFill=0;" parent="1" source="9mZkh-oFc15BfgS--x-H-22" target="FCDMfgkC4RyhxdJMBdM--14" edge="1">
          <mxGeometry relative="1" as="geometry" />
        </mxCell>
        <mxCell id="9mZkh-oFc15BfgS--x-H-22" value="UserBundle" style="shape=associativeEntity;whiteSpace=wrap;html=1;align=center;" parent="1" vertex="1">
          <mxGeometry x="328.33" y="310" width="140" height="60" as="geometry" />
        </mxCell>
        <mxCell id="9mZkh-oFc15BfgS--x-H-26" style="edgeStyle=orthogonalEdgeStyle;rounded=0;orthogonalLoop=1;jettySize=auto;html=1;exitX=0.25;exitY=0;exitDx=0;exitDy=0;entryX=0.416;entryY=0.965;entryDx=0;entryDy=0;entryPerimeter=0;endArrow=ERzeroToMany;endFill=0;" parent="1" source="3gaE-KXDp2KInn-WR0ou-22" target="3gaE-KXDp2KInn-WR0ou-20" edge="1">
          <mxGeometry relative="1" as="geometry" />
        </mxCell>
        <mxCell id="9mZkh-oFc15BfgS--x-H-29" style="edgeStyle=orthogonalEdgeStyle;rounded=0;orthogonalLoop=1;jettySize=auto;html=1;exitX=1;exitY=0.5;exitDx=0;exitDy=0;entryX=0.25;entryY=1;entryDx=0;entryDy=0;endArrow=ERzeroToMany;endFill=0;" parent="1" source="k20uD03Ni8Eal_G298R1-30" target="XK1nvMz3jrwBqo_m3qVX-53" edge="1">
          <mxGeometry relative="1" as="geometry">
            <mxPoint x="783.6000000000004" y="520.6000000000004" as="targetPoint" />
            <mxPoint x="685" y="510" as="sourcePoint" />
          </mxGeometry>
        </mxCell>
        <mxCell id="9mZkh-oFc15BfgS--x-H-30" style="edgeStyle=orthogonalEdgeStyle;rounded=0;orthogonalLoop=1;jettySize=auto;html=1;exitX=0;exitY=0.5;exitDx=0;exitDy=0;entryX=1;entryY=0.75;entryDx=0;entryDy=0;endArrow=ERone;endFill=0;" parent="1" source="k20uD03Ni8Eal_G298R1-30" target="3gaE-KXDp2KInn-WR0ou-20" edge="1">
          <mxGeometry relative="1" as="geometry">
            <mxPoint x="615" y="510" as="sourcePoint" />
          </mxGeometry>
        </mxCell>
        <mxCell id="9mZkh-oFc15BfgS--x-H-41" style="edgeStyle=orthogonalEdgeStyle;rounded=0;orthogonalLoop=1;jettySize=auto;html=1;exitX=0.5;exitY=0;exitDx=0;exitDy=0;entryX=0.5;entryY=1;entryDx=0;entryDy=0;endArrow=ERmandOne;endFill=0;" parent="1" source="9mZkh-oFc15BfgS--x-H-40" target="FCDMfgkC4RyhxdJMBdM--14" edge="1">
          <mxGeometry relative="1" as="geometry" />
        </mxCell>
        <mxCell id="9mZkh-oFc15BfgS--x-H-42" style="edgeStyle=orthogonalEdgeStyle;rounded=0;orthogonalLoop=1;jettySize=auto;html=1;exitX=0;exitY=1;exitDx=0;exitDy=0;entryX=0.25;entryY=0;entryDx=0;entryDy=0;endArrow=ERzeroToMany;endFill=0;" parent="1" source="9mZkh-oFc15BfgS--x-H-40" target="XK1nvMz3jrwBqo_m3qVX-60" edge="1">
          <mxGeometry relative="1" as="geometry">
            <mxPoint x="95" y="500" as="targetPoint" />
          </mxGeometry>
        </mxCell>
        <mxCell id="9mZkh-oFc15BfgS--x-H-40" value="Owned By" style="shape=rhombus;perimeter=rhombusPerimeter;whiteSpace=wrap;html=1;align=center;" parent="1" vertex="1">
          <mxGeometry x="40" y="400" width="120" height="60" as="geometry" />
        </mxCell>
        <mxCell id="9mZkh-oFc15BfgS--x-H-44" value="News Section" style="rounded=1;arcSize=10;whiteSpace=wrap;html=1;align=center;" parent="1" vertex="1">
          <mxGeometry x="-191.67000000000002" y="-20" width="100" height="40" as="geometry" />
        </mxCell>
        <mxCell id="9mZkh-oFc15BfgS--x-H-48" style="edgeStyle=orthogonalEdgeStyle;rounded=0;orthogonalLoop=1;jettySize=auto;html=1;exitX=1;exitY=0;exitDx=0;exitDy=0;entryX=0;entryY=0.5;entryDx=0;entryDy=0;endArrow=ERzeroToMany;endFill=0;" parent="1" source="9mZkh-oFc15BfgS--x-H-47" target="XK1nvMz3jrwBqo_m3qVX-36" edge="1">
          <mxGeometry relative="1" as="geometry">
            <mxPoint x="20" y="-160" as="targetPoint" />
          </mxGeometry>
        </mxCell>
        <mxCell id="9mZkh-oFc15BfgS--x-H-49" style="edgeStyle=orthogonalEdgeStyle;rounded=0;orthogonalLoop=1;jettySize=auto;html=1;exitX=0;exitY=1;exitDx=0;exitDy=0;entryX=0.25;entryY=0;entryDx=0;entryDy=0;endArrow=ERmandOne;endFill=0;" parent="1" source="9mZkh-oFc15BfgS--x-H-47" target="9mZkh-oFc15BfgS--x-H-44" edge="1">
          <mxGeometry relative="1" as="geometry" />
        </mxCell>
        <mxCell id="9mZkh-oFc15BfgS--x-H-47" value="ArticlePosting" style="shape=rhombus;perimeter=rhombusPerimeter;whiteSpace=wrap;html=1;align=center;" parent="1" vertex="1">
          <mxGeometry x="-91.67" y="-130" width="120" height="60" as="geometry" />
        </mxCell>
        <mxCell id="XK1nvMz3jrwBqo_m3qVX-2" style="edgeStyle=orthogonalEdgeStyle;rounded=0;orthogonalLoop=1;jettySize=auto;html=1;exitX=0.75;exitY=0;exitDx=0;exitDy=0;entryX=0.5;entryY=1;entryDx=0;entryDy=0;endArrow=ERzeroToMany;endFill=0;" parent="1" source="XK1nvMz3jrwBqo_m3qVX-1" target="XK1nvMz3jrwBqo_m3qVX-36" edge="1">
          <mxGeometry relative="1" as="geometry">
            <mxPoint x="70" y="-140" as="targetPoint" />
          </mxGeometry>
        </mxCell>
        <mxCell id="XK1nvMz3jrwBqo_m3qVX-3" style="edgeStyle=orthogonalEdgeStyle;rounded=0;orthogonalLoop=1;jettySize=auto;html=1;exitX=0.5;exitY=1;exitDx=0;exitDy=0;entryX=0;entryY=0.5;entryDx=0;entryDy=0;endArrow=ERzeroToMany;endFill=0;" parent="1" source="XK1nvMz3jrwBqo_m3qVX-1" target="MWaY8iljqtKaQMLSU5T6-1" edge="1">
          <mxGeometry relative="1" as="geometry" />
        </mxCell>
        <mxCell id="XK1nvMz3jrwBqo_m3qVX-1" value="ArticleReading" style="shape=associativeEntity;whiteSpace=wrap;html=1;align=center;" parent="1" vertex="1">
          <mxGeometry x="-40" y="-10" width="140" height="60" as="geometry" />
        </mxCell>
        <mxCell id="XK1nvMz3jrwBqo_m3qVX-4" value="Payment Method" style="rounded=1;arcSize=10;whiteSpace=wrap;html=1;align=center;" parent="1" vertex="1">
          <mxGeometry x="-320" y="-220" width="100" height="40" as="geometry" />
        </mxCell>
        <mxCell id="XK1nvMz3jrwBqo_m3qVX-23" value="" style="group" parent="1" vertex="1" connectable="0">
          <mxGeometry x="-350" y="-120" width="80" height="60" as="geometry" />
        </mxCell>
        <mxCell id="XK1nvMz3jrwBqo_m3qVX-24" value="" style="verticalLabelPosition=bottom;verticalAlign=top;html=1;shape=mxgraph.basic.acute_triangle;dx=0.5;" parent="XK1nvMz3jrwBqo_m3qVX-23" vertex="1">
          <mxGeometry width="80" height="60" as="geometry" />
        </mxCell>
        <mxCell id="XK1nvMz3jrwBqo_m3qVX-25" value="ISA" style="text;html=1;align=center;verticalAlign=middle;whiteSpace=wrap;rounded=0;" parent="XK1nvMz3jrwBqo_m3qVX-23" vertex="1">
          <mxGeometry x="10" y="20" width="60" height="30" as="geometry" />
        </mxCell>
        <mxCell id="XK1nvMz3jrwBqo_m3qVX-31" style="edgeStyle=orthogonalEdgeStyle;rounded=0;orthogonalLoop=1;jettySize=auto;html=1;exitX=0.25;exitY=1;exitDx=0;exitDy=0;entryX=0;entryY=0;entryDx=40;entryDy=0;entryPerimeter=0;endArrow=none;endFill=0;" parent="1" source="XK1nvMz3jrwBqo_m3qVX-4" target="XK1nvMz3jrwBqo_m3qVX-24" edge="1">
          <mxGeometry relative="1" as="geometry" />
        </mxCell>
        <mxCell id="XK1nvMz3jrwBqo_m3qVX-32" style="edgeStyle=orthogonalEdgeStyle;rounded=0;orthogonalLoop=1;jettySize=auto;html=1;exitX=0.5;exitY=1;exitDx=0;exitDy=0;exitPerimeter=0;entryX=0.5;entryY=0;entryDx=0;entryDy=0;endArrow=none;endFill=0;" parent="1" source="XK1nvMz3jrwBqo_m3qVX-24" target="MWaY8iljqtKaQMLSU5T6-23" edge="1">
          <mxGeometry relative="1" as="geometry" />
        </mxCell>
        <mxCell id="XK1nvMz3jrwBqo_m3qVX-35" style="edgeStyle=orthogonalEdgeStyle;rounded=0;orthogonalLoop=1;jettySize=auto;html=1;exitX=0.5;exitY=1;exitDx=0;exitDy=0;entryX=1;entryY=0.25;entryDx=0;entryDy=0;endArrow=none;endFill=0;" parent="1" source="XK1nvMz3jrwBqo_m3qVX-34" target="MWaY8iljqtKaQMLSU5T6-1" edge="1">
          <mxGeometry relative="1" as="geometry" />
        </mxCell>
        <mxCell id="XK1nvMz3jrwBqo_m3qVX-34" value="user_id" style="ellipse;whiteSpace=wrap;html=1;align=center;fontStyle=4;" parent="1" vertex="1">
          <mxGeometry x="180" y="-15" width="100" height="40" as="geometry" />
        </mxCell>
        <mxCell id="XK1nvMz3jrwBqo_m3qVX-36" value="News Article" style="shape=ext;margin=3;double=1;whiteSpace=wrap;html=1;align=center;" parent="1" vertex="1">
          <mxGeometry x="26.669999999999987" y="-180" width="100" height="40" as="geometry" />
        </mxCell>
        <mxCell id="XK1nvMz3jrwBqo_m3qVX-40" style="edgeStyle=orthogonalEdgeStyle;rounded=0;orthogonalLoop=1;jettySize=auto;html=1;exitX=0.5;exitY=0;exitDx=0;exitDy=0;entryX=0.25;entryY=1;entryDx=0;entryDy=0;endArrow=none;endFill=0;" parent="1" source="XK1nvMz3jrwBqo_m3qVX-38" target="9mZkh-oFc15BfgS--x-H-44" edge="1">
          <mxGeometry relative="1" as="geometry" />
        </mxCell>
        <mxCell id="XK1nvMz3jrwBqo_m3qVX-38" value="news_section_id" style="ellipse;whiteSpace=wrap;html=1;align=center;fontStyle=4;" parent="1" vertex="1">
          <mxGeometry x="-230" y="70" width="100" height="40" as="geometry" />
        </mxCell>
        <mxCell id="XK1nvMz3jrwBqo_m3qVX-43" style="edgeStyle=orthogonalEdgeStyle;rounded=0;orthogonalLoop=1;jettySize=auto;html=1;exitX=0.5;exitY=1;exitDx=0;exitDy=0;entryX=0.5;entryY=0;entryDx=0;entryDy=0;endArrow=none;endFill=0;" parent="1" source="XK1nvMz3jrwBqo_m3qVX-42" target="XK1nvMz3jrwBqo_m3qVX-36" edge="1">
          <mxGeometry relative="1" as="geometry" />
        </mxCell>
        <mxCell id="XK1nvMz3jrwBqo_m3qVX-42" value="article_id" style="ellipse;whiteSpace=wrap;html=1;align=center;fontStyle=4;" parent="1" vertex="1">
          <mxGeometry x="30" y="-260" width="100" height="40" as="geometry" />
        </mxCell>
        <mxCell id="XK1nvMz3jrwBqo_m3qVX-49" style="edgeStyle=orthogonalEdgeStyle;rounded=0;orthogonalLoop=1;jettySize=auto;html=1;exitX=0;exitY=0.5;exitDx=0;exitDy=0;entryX=1;entryY=0.5;entryDx=0;entryDy=0;endArrow=none;endFill=0;" parent="1" source="XK1nvMz3jrwBqo_m3qVX-44" target="XK1nvMz3jrwBqo_m3qVX-1" edge="1">
          <mxGeometry relative="1" as="geometry" />
        </mxCell>
        <mxCell id="XK1nvMz3jrwBqo_m3qVX-44" value="article_reading_id" style="ellipse;whiteSpace=wrap;html=1;align=center;fontStyle=4;" parent="1" vertex="1">
          <mxGeometry x="218.32999999999998" y="-80" width="100" height="40" as="geometry" />
        </mxCell>
        <mxCell id="XK1nvMz3jrwBqo_m3qVX-48" style="edgeStyle=orthogonalEdgeStyle;rounded=0;orthogonalLoop=1;jettySize=auto;html=1;exitX=0;exitY=0.5;exitDx=0;exitDy=0;entryX=1;entryY=0.25;entryDx=0;entryDy=0;endArrow=none;endFill=0;" parent="1" source="XK1nvMz3jrwBqo_m3qVX-45" target="XK1nvMz3jrwBqo_m3qVX-1" edge="1">
          <mxGeometry relative="1" as="geometry" />
        </mxCell>
        <mxCell id="XK1nvMz3jrwBqo_m3qVX-45" value="&lt;span style=&quot;border-bottom: 1px dotted&quot;&gt;user_id&lt;/span&gt;" style="ellipse;whiteSpace=wrap;html=1;align=center;" parent="1" vertex="1">
          <mxGeometry x="180" y="-130" width="100" height="40" as="geometry" />
        </mxCell>
        <mxCell id="XK1nvMz3jrwBqo_m3qVX-47" style="edgeStyle=orthogonalEdgeStyle;rounded=0;orthogonalLoop=1;jettySize=auto;html=1;exitX=0;exitY=1;exitDx=0;exitDy=0;entryX=1;entryY=0;entryDx=0;entryDy=0;endArrow=none;endFill=0;" parent="1" source="XK1nvMz3jrwBqo_m3qVX-46" target="XK1nvMz3jrwBqo_m3qVX-1" edge="1">
          <mxGeometry relative="1" as="geometry">
            <Array as="points">
              <mxPoint x="165" y="-130" />
              <mxPoint x="100" y="-130" />
            </Array>
          </mxGeometry>
        </mxCell>
        <mxCell id="XK1nvMz3jrwBqo_m3qVX-46" value="&lt;span style=&quot;border-bottom: 1px dotted&quot;&gt;article_id&lt;/span&gt;" style="ellipse;whiteSpace=wrap;html=1;align=center;" parent="1" vertex="1">
          <mxGeometry x="150" y="-180" width="100" height="40" as="geometry" />
        </mxCell>
        <mxCell id="XK1nvMz3jrwBqo_m3qVX-52" style="edgeStyle=orthogonalEdgeStyle;rounded=0;orthogonalLoop=1;jettySize=auto;html=1;exitX=1;exitY=0.5;exitDx=0;exitDy=0;entryX=0;entryY=0.75;entryDx=0;entryDy=0;endArrow=none;endFill=0;" parent="1" source="XK1nvMz3jrwBqo_m3qVX-50" target="3gaE-KXDp2KInn-WR0ou-20" edge="1">
          <mxGeometry relative="1" as="geometry" />
        </mxCell>
        <mxCell id="XK1nvMz3jrwBqo_m3qVX-50" value="marketplace_id" style="ellipse;whiteSpace=wrap;html=1;align=center;fontStyle=4;" parent="1" vertex="1">
          <mxGeometry x="320" y="520" width="100" height="40" as="geometry" />
        </mxCell>
        <mxCell id="XK1nvMz3jrwBqo_m3qVX-53" value="Bundle" style="shape=ext;margin=3;double=1;whiteSpace=wrap;html=1;align=center;" parent="1" vertex="1">
          <mxGeometry x="740" y="465" width="100" height="40" as="geometry" />
        </mxCell>
        <mxCell id="XK1nvMz3jrwBqo_m3qVX-57" style="edgeStyle=orthogonalEdgeStyle;rounded=0;orthogonalLoop=1;jettySize=auto;html=1;exitX=0;exitY=0.5;exitDx=0;exitDy=0;entryX=1;entryY=0.75;entryDx=0;entryDy=0;endArrow=none;endFill=0;" parent="1" source="XK1nvMz3jrwBqo_m3qVX-54" target="XK1nvMz3jrwBqo_m3qVX-53" edge="1">
          <mxGeometry relative="1" as="geometry" />
        </mxCell>
        <mxCell id="XK1nvMz3jrwBqo_m3qVX-54" value="bundle_id" style="ellipse;whiteSpace=wrap;html=1;align=center;fontStyle=4;" parent="1" vertex="1">
          <mxGeometry x="940" y="540" width="100" height="40" as="geometry" />
        </mxCell>
        <mxCell id="XK1nvMz3jrwBqo_m3qVX-56" style="edgeStyle=orthogonalEdgeStyle;rounded=0;orthogonalLoop=1;jettySize=auto;html=1;exitX=0;exitY=0.5;exitDx=0;exitDy=0;entryX=1;entryY=0.5;entryDx=0;entryDy=0;endArrow=none;endFill=0;" parent="1" source="XK1nvMz3jrwBqo_m3qVX-55" target="XK1nvMz3jrwBqo_m3qVX-53" edge="1">
          <mxGeometry relative="1" as="geometry" />
        </mxCell>
        <mxCell id="XK1nvMz3jrwBqo_m3qVX-55" value="&lt;span style=&quot;border-bottom: 1px dotted&quot;&gt;genre&lt;/span&gt;" style="ellipse;whiteSpace=wrap;html=1;align=center;" parent="1" vertex="1">
          <mxGeometry x="950" y="490" width="100" height="40" as="geometry" />
        </mxCell>
        <mxCell id="XK1nvMz3jrwBqo_m3qVX-59" style="edgeStyle=orthogonalEdgeStyle;rounded=0;orthogonalLoop=1;jettySize=auto;html=1;exitX=0.5;exitY=1;exitDx=0;exitDy=0;entryX=0;entryY=0;entryDx=0;entryDy=0;endArrow=none;endFill=0;" parent="1" source="XK1nvMz3jrwBqo_m3qVX-58" target="XK1nvMz3jrwBqo_m3qVX-36" edge="1">
          <mxGeometry relative="1" as="geometry" />
        </mxCell>
        <mxCell id="XK1nvMz3jrwBqo_m3qVX-58" value="&lt;span style=&quot;border-bottom: 1px dotted&quot;&gt;news_section_id&lt;/span&gt;" style="ellipse;whiteSpace=wrap;html=1;align=center;" parent="1" vertex="1">
          <mxGeometry x="-70" y="-240" width="100" height="40" as="geometry" />
        </mxCell>
        <mxCell id="XK1nvMz3jrwBqo_m3qVX-60" value="Game Collection Subgroup" style="shape=ext;margin=3;double=1;whiteSpace=wrap;html=1;align=center;" parent="1" vertex="1">
          <mxGeometry x="80" y="510" width="110" height="40" as="geometry" />
        </mxCell>
        <mxCell id="XK1nvMz3jrwBqo_m3qVX-68" style="edgeStyle=orthogonalEdgeStyle;rounded=0;orthogonalLoop=1;jettySize=auto;html=1;exitX=0;exitY=0.5;exitDx=0;exitDy=0;entryX=1;entryY=0;entryDx=0;entryDy=0;endArrow=none;endFill=0;" parent="1" source="XK1nvMz3jrwBqo_m3qVX-62" target="XK1nvMz3jrwBqo_m3qVX-60" edge="1">
          <mxGeometry relative="1" as="geometry" />
        </mxCell>
        <mxCell id="XK1nvMz3jrwBqo_m3qVX-62" value="game_subgroup_id" style="ellipse;whiteSpace=wrap;html=1;align=center;fontStyle=4;" parent="1" vertex="1">
          <mxGeometry x="210" y="490" width="100" height="40" as="geometry" />
        </mxCell>
        <mxCell id="XK1nvMz3jrwBqo_m3qVX-63" value="&lt;span style=&quot;border-bottom: 1px dotted&quot;&gt;genre&lt;/span&gt;" style="ellipse;whiteSpace=wrap;html=1;align=center;" parent="1" vertex="1">
          <mxGeometry x="209.99999999999997" y="440" width="100" height="40" as="geometry" />
        </mxCell>
        <mxCell id="XK1nvMz3jrwBqo_m3qVX-69" style="edgeStyle=orthogonalEdgeStyle;rounded=0;orthogonalLoop=1;jettySize=auto;html=1;exitX=0;exitY=0.5;exitDx=0;exitDy=0;entryX=0.75;entryY=1;entryDx=0;entryDy=0;endArrow=none;endFill=0;" parent="1" source="XK1nvMz3jrwBqo_m3qVX-64" target="XK1nvMz3jrwBqo_m3qVX-60" edge="1">
          <mxGeometry relative="1" as="geometry" />
        </mxCell>
        <mxCell id="XK1nvMz3jrwBqo_m3qVX-64" value="&lt;span style=&quot;border-bottom: 1px dotted&quot;&gt;registered_user_id&lt;/span&gt;" style="ellipse;whiteSpace=wrap;html=1;align=center;" parent="1" vertex="1">
          <mxGeometry x="210" y="545" width="100" height="40" as="geometry" />
        </mxCell>
        <mxCell id="XK1nvMz3jrwBqo_m3qVX-67" style="edgeStyle=orthogonalEdgeStyle;rounded=0;orthogonalLoop=1;jettySize=auto;html=1;exitX=0;exitY=0.5;exitDx=0;exitDy=0;entryX=0.848;entryY=0.036;entryDx=0;entryDy=0;entryPerimeter=0;endArrow=none;endFill=0;" parent="1" source="XK1nvMz3jrwBqo_m3qVX-63" target="XK1nvMz3jrwBqo_m3qVX-60" edge="1">
          <mxGeometry relative="1" as="geometry" />
        </mxCell>
        <mxCell id="XK1nvMz3jrwBqo_m3qVX-71" style="edgeStyle=orthogonalEdgeStyle;rounded=0;orthogonalLoop=1;jettySize=auto;html=1;exitX=0.5;exitY=0;exitDx=0;exitDy=0;entryX=0.5;entryY=1;entryDx=0;entryDy=0;endArrow=none;endFill=0;" parent="1" source="XK1nvMz3jrwBqo_m3qVX-70" target="3gaE-KXDp2KInn-WR0ou-40" edge="1">
          <mxGeometry relative="1" as="geometry" />
        </mxCell>
        <mxCell id="XK1nvMz3jrwBqo_m3qVX-70" value="publisher_id" style="ellipse;whiteSpace=wrap;html=1;align=center;fontStyle=4;" parent="1" vertex="1">
          <mxGeometry x="-30" y="1330" width="100" height="40" as="geometry" />
        </mxCell>
        <mxCell id="XK1nvMz3jrwBqo_m3qVX-73" style="edgeStyle=orthogonalEdgeStyle;rounded=0;orthogonalLoop=1;jettySize=auto;html=1;exitX=0.5;exitY=1;exitDx=0;exitDy=0;entryX=0.75;entryY=0;entryDx=0;entryDy=0;endArrow=none;endFill=0;" parent="1" source="XK1nvMz3jrwBqo_m3qVX-72" target="3gaE-KXDp2KInn-WR0ou-4" edge="1">
          <mxGeometry relative="1" as="geometry" />
        </mxCell>
        <mxCell id="XK1nvMz3jrwBqo_m3qVX-72" value="developer_id" style="ellipse;whiteSpace=wrap;html=1;align=center;fontStyle=4;" parent="1" vertex="1">
          <mxGeometry x="60" y="1120" width="100" height="40" as="geometry" />
        </mxCell>
        <mxCell id="XK1nvMz3jrwBqo_m3qVX-75" style="edgeStyle=orthogonalEdgeStyle;rounded=0;orthogonalLoop=1;jettySize=auto;html=1;exitX=0.5;exitY=1;exitDx=0;exitDy=0;entryX=0.5;entryY=0;entryDx=0;entryDy=0;endArrow=none;endFill=0;" parent="1" source="XK1nvMz3jrwBqo_m3qVX-74" target="XgH2uq8EYfYxta0Vq5KT-28" edge="1">
          <mxGeometry relative="1" as="geometry" />
        </mxCell>
        <mxCell id="XK1nvMz3jrwBqo_m3qVX-74" value="forum_id" style="ellipse;whiteSpace=wrap;html=1;align=center;fontStyle=4;" parent="1" vertex="1">
          <mxGeometry x="1790" y="130" width="100" height="40" as="geometry" />
        </mxCell>
        <mxCell id="XK1nvMz3jrwBqo_m3qVX-79" style="edgeStyle=orthogonalEdgeStyle;rounded=0;orthogonalLoop=1;jettySize=auto;html=1;exitX=0.5;exitY=1;exitDx=0;exitDy=0;entryX=0.25;entryY=0;entryDx=0;entryDy=0;endArrow=none;endFill=0;" parent="1" source="XK1nvMz3jrwBqo_m3qVX-76" target="XK1nvMz3jrwBqo_m3qVX-82" edge="1">
          <mxGeometry relative="1" as="geometry">
            <mxPoint x="1275" y="200" as="targetPoint" />
          </mxGeometry>
        </mxCell>
        <mxCell id="XK1nvMz3jrwBqo_m3qVX-76" value="discussion_post_id" style="ellipse;whiteSpace=wrap;html=1;align=center;fontStyle=4;" parent="1" vertex="1">
          <mxGeometry x="1225" y="100" width="100" height="40" as="geometry" />
        </mxCell>
        <mxCell id="XK1nvMz3jrwBqo_m3qVX-81" style="edgeStyle=orthogonalEdgeStyle;rounded=0;orthogonalLoop=1;jettySize=auto;html=1;exitX=0;exitY=0.5;exitDx=0;exitDy=0;entryX=1;entryY=0.25;entryDx=0;entryDy=0;endArrow=none;endFill=0;" parent="1" source="XK1nvMz3jrwBqo_m3qVX-77" target="XK1nvMz3jrwBqo_m3qVX-82" edge="1">
          <mxGeometry relative="1" as="geometry">
            <mxPoint x="1325" y="200" as="targetPoint" />
          </mxGeometry>
        </mxCell>
        <mxCell id="XK1nvMz3jrwBqo_m3qVX-77" value="&lt;span style=&quot;border-bottom: 1px dotted&quot;&gt;forum_id&lt;/span&gt;" style="ellipse;whiteSpace=wrap;html=1;align=center;" parent="1" vertex="1">
          <mxGeometry x="1420" y="190" width="100" height="40" as="geometry" />
        </mxCell>
        <mxCell id="XK1nvMz3jrwBqo_m3qVX-80" style="edgeStyle=orthogonalEdgeStyle;rounded=0;orthogonalLoop=1;jettySize=auto;html=1;exitX=0;exitY=1;exitDx=0;exitDy=0;entryX=0.75;entryY=0;entryDx=0;entryDy=0;endArrow=none;endFill=0;" parent="1" source="XK1nvMz3jrwBqo_m3qVX-78" target="XK1nvMz3jrwBqo_m3qVX-82" edge="1">
          <mxGeometry relative="1" as="geometry">
            <mxPoint x="1300" y="200" as="targetPoint" />
          </mxGeometry>
        </mxCell>
        <mxCell id="XK1nvMz3jrwBqo_m3qVX-78" value="&lt;span style=&quot;border-bottom: 1px dotted&quot;&gt;registered_user_id&lt;/span&gt;" style="ellipse;whiteSpace=wrap;html=1;align=center;" parent="1" vertex="1">
          <mxGeometry x="1370" y="110" width="100" height="40" as="geometry" />
        </mxCell>
        <mxCell id="XK1nvMz3jrwBqo_m3qVX-82" value="Discussion Post" style="shape=ext;margin=3;double=1;whiteSpace=wrap;html=1;align=center;" parent="1" vertex="1">
          <mxGeometry x="1240" y="200" width="100" height="40" as="geometry" />
        </mxCell>
        <mxCell id="XK1nvMz3jrwBqo_m3qVX-90" style="edgeStyle=orthogonalEdgeStyle;rounded=0;orthogonalLoop=1;jettySize=auto;html=1;exitX=1;exitY=1;exitDx=0;exitDy=0;endArrow=none;endFill=0;entryX=0.5;entryY=0;entryDx=0;entryDy=0;" parent="1" source="XK1nvMz3jrwBqo_m3qVX-84" target="XK1nvMz3jrwBqo_m3qVX-94" edge="1">
          <mxGeometry relative="1" as="geometry">
            <mxPoint x="640" y="30" as="targetPoint" />
          </mxGeometry>
        </mxCell>
        <mxCell id="XK1nvMz3jrwBqo_m3qVX-84" value="discussion_&lt;div&gt;reply_id&lt;/div&gt;" style="ellipse;whiteSpace=wrap;html=1;align=center;fontStyle=4;" parent="1" vertex="1">
          <mxGeometry x="530" y="-90" width="100" height="40" as="geometry" />
        </mxCell>
        <mxCell id="XK1nvMz3jrwBqo_m3qVX-93" style="edgeStyle=orthogonalEdgeStyle;rounded=0;orthogonalLoop=1;jettySize=auto;html=1;exitX=0;exitY=0.5;exitDx=0;exitDy=0;entryX=1;entryY=0.5;entryDx=0;entryDy=0;endArrow=none;endFill=0;" parent="1" source="XK1nvMz3jrwBqo_m3qVX-85" target="XK1nvMz3jrwBqo_m3qVX-94" edge="1">
          <mxGeometry relative="1" as="geometry">
            <mxPoint x="690" y="40" as="targetPoint" />
          </mxGeometry>
        </mxCell>
        <mxCell id="XK1nvMz3jrwBqo_m3qVX-85" value="&lt;span style=&quot;border-bottom: 1px dotted&quot;&gt;registered_&lt;/span&gt;&lt;div&gt;&lt;span style=&quot;border-bottom: 1px dotted&quot;&gt;user_id&lt;/span&gt;&lt;/div&gt;" style="ellipse;whiteSpace=wrap;html=1;align=center;" parent="1" vertex="1">
          <mxGeometry x="840" y="-10" width="100" height="40" as="geometry" />
        </mxCell>
        <mxCell id="XK1nvMz3jrwBqo_m3qVX-92" style="edgeStyle=orthogonalEdgeStyle;rounded=0;orthogonalLoop=1;jettySize=auto;html=1;exitX=0;exitY=1;exitDx=0;exitDy=0;entryX=1;entryY=0;entryDx=0;entryDy=0;endArrow=none;endFill=0;" parent="1" source="XK1nvMz3jrwBqo_m3qVX-86" target="XK1nvMz3jrwBqo_m3qVX-94" edge="1">
          <mxGeometry relative="1" as="geometry">
            <mxPoint x="690" y="30" as="targetPoint" />
          </mxGeometry>
        </mxCell>
        <mxCell id="XK1nvMz3jrwBqo_m3qVX-86" value="&lt;span style=&quot;border-bottom: 1px dotted&quot;&gt;reply_parent_id&lt;/span&gt;" style="ellipse;whiteSpace=wrap;html=1;align=center;" parent="1" vertex="1">
          <mxGeometry x="770" y="-70" width="100" height="40" as="geometry" />
        </mxCell>
        <mxCell id="XK1nvMz3jrwBqo_m3qVX-91" style="edgeStyle=orthogonalEdgeStyle;rounded=0;orthogonalLoop=1;jettySize=auto;html=1;exitX=0;exitY=1;exitDx=0;exitDy=0;entryX=0.75;entryY=0;entryDx=0;entryDy=0;endArrow=none;endFill=0;" parent="1" source="XK1nvMz3jrwBqo_m3qVX-87" target="XK1nvMz3jrwBqo_m3qVX-94" edge="1">
          <mxGeometry relative="1" as="geometry">
            <mxPoint x="665" y="30" as="targetPoint" />
          </mxGeometry>
        </mxCell>
        <mxCell id="XK1nvMz3jrwBqo_m3qVX-87" value="&lt;span style=&quot;border-bottom: 1px dotted&quot;&gt;discussion_&lt;/span&gt;&lt;div&gt;&lt;span style=&quot;border-bottom: 1px dotted&quot;&gt;post_id&lt;/span&gt;&lt;/div&gt;" style="ellipse;whiteSpace=wrap;html=1;align=center;" parent="1" vertex="1">
          <mxGeometry x="660" y="-100" width="100" height="40" as="geometry" />
        </mxCell>
        <mxCell id="XK1nvMz3jrwBqo_m3qVX-94" value="Discussion Reply" style="shape=ext;margin=3;double=1;whiteSpace=wrap;html=1;align=center;" parent="1" vertex="1">
          <mxGeometry x="600" y="40" width="110" height="40" as="geometry" />
        </mxCell>
        <mxCell id="XK1nvMz3jrwBqo_m3qVX-96" style="edgeStyle=orthogonalEdgeStyle;rounded=0;orthogonalLoop=1;jettySize=auto;html=1;exitX=1;exitY=0.5;exitDx=0;exitDy=0;entryX=0.25;entryY=0;entryDx=0;entryDy=0;endArrow=none;endFill=0;" parent="1" source="XK1nvMz3jrwBqo_m3qVX-95" target="k20uD03Ni8Eal_G298R1-101" edge="1">
          <mxGeometry relative="1" as="geometry">
            <mxPoint x="-325" y="160" as="targetPoint" />
          </mxGeometry>
        </mxCell>
        <mxCell id="XK1nvMz3jrwBqo_m3qVX-95" value="game_guild_id" style="ellipse;whiteSpace=wrap;html=1;align=center;fontStyle=4;" parent="1" vertex="1">
          <mxGeometry x="-460" y="120" width="100" height="40" as="geometry" />
        </mxCell>
        <mxCell id="XK1nvMz3jrwBqo_m3qVX-98" style="edgeStyle=orthogonalEdgeStyle;rounded=0;orthogonalLoop=1;jettySize=auto;html=1;exitX=0.5;exitY=1;exitDx=0;exitDy=0;entryX=0.25;entryY=0;entryDx=0;entryDy=0;endArrow=none;endFill=0;" parent="1" source="XK1nvMz3jrwBqo_m3qVX-97" target="XgH2uq8EYfYxta0Vq5KT-13" edge="1">
          <mxGeometry relative="1" as="geometry" />
        </mxCell>
        <mxCell id="XK1nvMz3jrwBqo_m3qVX-97" value="platform_id" style="ellipse;whiteSpace=wrap;html=1;align=center;fontStyle=4;" parent="1" vertex="1">
          <mxGeometry x="-460" y="830" width="100" height="40" as="geometry" />
        </mxCell>
        <mxCell id="XK1nvMz3jrwBqo_m3qVX-100" style="edgeStyle=orthogonalEdgeStyle;rounded=0;orthogonalLoop=1;jettySize=auto;html=1;exitX=0;exitY=1;exitDx=0;exitDy=0;entryX=1;entryY=0.5;entryDx=0;entryDy=0;endArrow=ERzeroToOne;endFill=0;" parent="1" source="XK1nvMz3jrwBqo_m3qVX-99" target="XK1nvMz3jrwBqo_m3qVX-112" edge="1">
          <mxGeometry relative="1" as="geometry">
            <mxPoint x="-200" y="390" as="targetPoint" />
          </mxGeometry>
        </mxCell>
        <mxCell id="XK1nvMz3jrwBqo_m3qVX-101" style="edgeStyle=orthogonalEdgeStyle;rounded=0;orthogonalLoop=1;jettySize=auto;html=1;exitX=1;exitY=0.5;exitDx=0;exitDy=0;entryX=0;entryY=0.75;entryDx=0;entryDy=0;endArrow=ERoneToMany;endFill=0;" parent="1" source="XK1nvMz3jrwBqo_m3qVX-99" target="FCDMfgkC4RyhxdJMBdM--14" edge="1">
          <mxGeometry relative="1" as="geometry">
            <mxPoint x="20" y="320" as="targetPoint" />
          </mxGeometry>
        </mxCell>
        <mxCell id="XK1nvMz3jrwBqo_m3qVX-99" value="Join" style="shape=rhombus;perimeter=rhombusPerimeter;whiteSpace=wrap;html=1;align=center;" parent="1" vertex="1">
          <mxGeometry x="-130" y="290" width="120" height="60" as="geometry" />
        </mxCell>
        <mxCell id="XK1nvMz3jrwBqo_m3qVX-112" value="Game Party" style="shape=ext;margin=3;double=1;whiteSpace=wrap;html=1;align=center;" parent="1" vertex="1">
          <mxGeometry x="-300" y="360" width="100" height="40" as="geometry" />
        </mxCell>
        <mxCell id="k20uD03Ni8Eal_G298R1-2" style="edgeStyle=orthogonalEdgeStyle;rounded=0;orthogonalLoop=1;jettySize=auto;html=1;exitX=0.5;exitY=1;exitDx=0;exitDy=0;entryX=0.5;entryY=0;entryDx=0;entryDy=0;endArrow=none;endFill=0;" edge="1" parent="1" source="k20uD03Ni8Eal_G298R1-1" target="FCDMfgkC4RyhxdJMBdM--19">
          <mxGeometry relative="1" as="geometry" />
        </mxCell>
        <mxCell id="k20uD03Ni8Eal_G298R1-1" value="genre_id" style="ellipse;whiteSpace=wrap;html=1;align=center;fontStyle=4;" vertex="1" parent="1">
          <mxGeometry x="1000" y="210" width="100" height="40" as="geometry" />
        </mxCell>
        <mxCell id="k20uD03Ni8Eal_G298R1-7" style="edgeStyle=orthogonalEdgeStyle;rounded=0;orthogonalLoop=1;jettySize=auto;html=1;entryX=1;entryY=1;entryDx=0;entryDy=0;endArrow=none;endFill=0;exitX=0;exitY=0.5;exitDx=0;exitDy=0;" edge="1" parent="1" source="k20uD03Ni8Eal_G298R1-4" target="k20uD03Ni8Eal_G298R1-8">
          <mxGeometry relative="1" as="geometry">
            <mxPoint x="220" y="880" as="sourcePoint" />
            <mxPoint x="185" y="790" as="targetPoint" />
            <Array as="points">
              <mxPoint x="160" y="870" />
            </Array>
          </mxGeometry>
        </mxCell>
        <mxCell id="k20uD03Ni8Eal_G298R1-4" value="&lt;span style=&quot;border-bottom: 1px dotted&quot;&gt;publisher_id&lt;/span&gt;" style="ellipse;whiteSpace=wrap;html=1;align=center;" vertex="1" parent="1">
          <mxGeometry x="228.32999999999998" y="850" width="100" height="40" as="geometry" />
        </mxCell>
        <mxCell id="k20uD03Ni8Eal_G298R1-6" style="edgeStyle=orthogonalEdgeStyle;rounded=0;orthogonalLoop=1;jettySize=auto;html=1;exitX=0;exitY=0;exitDx=0;exitDy=0;entryX=1;entryY=1;entryDx=0;entryDy=0;endArrow=none;endFill=0;" edge="1" parent="1" source="k20uD03Ni8Eal_G298R1-5" target="k20uD03Ni8Eal_G298R1-8">
          <mxGeometry relative="1" as="geometry">
            <mxPoint x="210" y="790" as="targetPoint" />
          </mxGeometry>
        </mxCell>
        <mxCell id="k20uD03Ni8Eal_G298R1-5" value="&lt;span style=&quot;border-bottom: 1px dotted&quot;&gt;developer_id&lt;/span&gt;" style="ellipse;whiteSpace=wrap;html=1;align=center;" vertex="1" parent="1">
          <mxGeometry x="228.32999999999998" y="900" width="100" height="40" as="geometry" />
        </mxCell>
        <mxCell id="k20uD03Ni8Eal_G298R1-8" value="Game" style="shape=ext;margin=3;double=1;whiteSpace=wrap;html=1;align=center;" vertex="1" parent="1">
          <mxGeometry x="60" y="730" width="100" height="40" as="geometry" />
        </mxCell>
        <mxCell id="k20uD03Ni8Eal_G298R1-12" style="edgeStyle=orthogonalEdgeStyle;rounded=0;orthogonalLoop=1;jettySize=auto;html=1;exitX=0.5;exitY=1;exitDx=0;exitDy=0;entryX=0.75;entryY=0;entryDx=0;entryDy=0;endArrow=none;endFill=0;" edge="1" parent="1" source="k20uD03Ni8Eal_G298R1-9" target="XK1nvMz3jrwBqo_m3qVX-4">
          <mxGeometry relative="1" as="geometry" />
        </mxCell>
        <mxCell id="k20uD03Ni8Eal_G298R1-9" value="payment_&lt;div&gt;method_id&lt;/div&gt;" style="ellipse;whiteSpace=wrap;html=1;align=center;fontStyle=4;" vertex="1" parent="1">
          <mxGeometry x="-230" y="-310" width="100" height="40" as="geometry" />
        </mxCell>
        <mxCell id="k20uD03Ni8Eal_G298R1-10" value="&lt;span style=&quot;border-bottom: 1px dotted&quot;&gt;registered_&lt;/span&gt;&lt;div&gt;&lt;span style=&quot;border-bottom: 1px dotted&quot;&gt;user_id&lt;/span&gt;&lt;/div&gt;" style="ellipse;whiteSpace=wrap;html=1;align=center;" vertex="1" parent="1">
          <mxGeometry x="-380" y="-310" width="100" height="40" as="geometry" />
        </mxCell>
        <mxCell id="k20uD03Ni8Eal_G298R1-11" style="edgeStyle=orthogonalEdgeStyle;rounded=0;orthogonalLoop=1;jettySize=auto;html=1;exitX=0.5;exitY=1;exitDx=0;exitDy=0;entryX=0.25;entryY=0;entryDx=0;entryDy=0;endArrow=none;endFill=0;" edge="1" parent="1" source="k20uD03Ni8Eal_G298R1-10" target="XK1nvMz3jrwBqo_m3qVX-4">
          <mxGeometry relative="1" as="geometry" />
        </mxCell>
        <mxCell id="k20uD03Ni8Eal_G298R1-14" style="edgeStyle=orthogonalEdgeStyle;rounded=0;orthogonalLoop=1;jettySize=auto;html=1;exitX=0.5;exitY=1;exitDx=0;exitDy=0;entryX=0;entryY=0.75;entryDx=0;entryDy=0;endArrow=none;endFill=0;" edge="1" parent="1" source="k20uD03Ni8Eal_G298R1-13" target="MWaY8iljqtKaQMLSU5T6-23">
          <mxGeometry relative="1" as="geometry" />
        </mxCell>
        <mxCell id="k20uD03Ni8Eal_G298R1-13" value="card_number" style="ellipse;whiteSpace=wrap;html=1;align=center;fontStyle=4;" vertex="1" parent="1">
          <mxGeometry x="-490" width="100" height="40" as="geometry" />
        </mxCell>
        <mxCell id="k20uD03Ni8Eal_G298R1-27" style="edgeStyle=orthogonalEdgeStyle;rounded=0;orthogonalLoop=1;jettySize=auto;html=1;exitX=0;exitY=0.5;exitDx=0;exitDy=0;endArrow=none;endFill=0;" edge="1" parent="1" source="k20uD03Ni8Eal_G298R1-16">
          <mxGeometry relative="1" as="geometry">
            <mxPoint x="290" y="200" as="targetPoint" />
          </mxGeometry>
        </mxCell>
        <mxCell id="k20uD03Ni8Eal_G298R1-16" value="&lt;span style=&quot;border-bottom: 1px dotted&quot;&gt;best_friend&lt;/span&gt;" style="ellipse;whiteSpace=wrap;html=1;align=center;" vertex="1" parent="1">
          <mxGeometry x="318.33" y="50" width="100" height="40" as="geometry" />
        </mxCell>
        <mxCell id="k20uD03Ni8Eal_G298R1-28" style="edgeStyle=orthogonalEdgeStyle;rounded=0;orthogonalLoop=1;jettySize=auto;html=1;exitX=0;exitY=0.5;exitDx=0;exitDy=0;endArrow=none;endFill=0;" edge="1" parent="1" source="k20uD03Ni8Eal_G298R1-17">
          <mxGeometry relative="1" as="geometry">
            <mxPoint x="290" y="200" as="targetPoint" />
          </mxGeometry>
        </mxCell>
        <mxCell id="k20uD03Ni8Eal_G298R1-17" value="&lt;span style=&quot;border-bottom: 1px dotted&quot;&gt;favorite_genre&lt;/span&gt;" style="ellipse;whiteSpace=wrap;html=1;align=center;" vertex="1" parent="1">
          <mxGeometry x="318.33" y="100" width="100" height="40" as="geometry" />
        </mxCell>
        <mxCell id="k20uD03Ni8Eal_G298R1-26" style="edgeStyle=orthogonalEdgeStyle;rounded=0;orthogonalLoop=1;jettySize=auto;html=1;exitX=0;exitY=0.5;exitDx=0;exitDy=0;endArrow=none;endFill=0;" edge="1" parent="1" source="k20uD03Ni8Eal_G298R1-18">
          <mxGeometry relative="1" as="geometry">
            <mxPoint x="290" y="200" as="targetPoint" />
          </mxGeometry>
        </mxCell>
        <mxCell id="k20uD03Ni8Eal_G298R1-18" value="&lt;span style=&quot;border-bottom: 1px dotted&quot;&gt;game_party_id&lt;/span&gt;" style="ellipse;whiteSpace=wrap;html=1;align=center;" vertex="1" parent="1">
          <mxGeometry x="318.33" width="100" height="40" as="geometry" />
        </mxCell>
        <mxCell id="k20uD03Ni8Eal_G298R1-29" style="edgeStyle=orthogonalEdgeStyle;rounded=0;orthogonalLoop=1;jettySize=auto;html=1;exitX=0;exitY=0.5;exitDx=0;exitDy=0;endArrow=none;endFill=0;" edge="1" parent="1" source="k20uD03Ni8Eal_G298R1-15">
          <mxGeometry relative="1" as="geometry">
            <mxPoint x="290" y="200" as="targetPoint" />
          </mxGeometry>
        </mxCell>
        <mxCell id="k20uD03Ni8Eal_G298R1-15" value="registered_user_id" style="ellipse;whiteSpace=wrap;html=1;align=center;fontStyle=4;" vertex="1" parent="1">
          <mxGeometry x="318.33000000000004" y="150" width="100" height="40" as="geometry" />
        </mxCell>
        <mxCell id="k20uD03Ni8Eal_G298R1-21" value="" style="endArrow=none;html=1;rounded=0;exitX=0.75;exitY=0;exitDx=0;exitDy=0;" edge="1" parent="1" source="FCDMfgkC4RyhxdJMBdM--14">
          <mxGeometry relative="1" as="geometry">
            <mxPoint x="150" y="240" as="sourcePoint" />
            <mxPoint x="290" y="200" as="targetPoint" />
          </mxGeometry>
        </mxCell>
        <mxCell id="k20uD03Ni8Eal_G298R1-30" value="Sold In" style="shape=rhombus;perimeter=rhombusPerimeter;whiteSpace=wrap;html=1;align=center;" vertex="1" parent="1">
          <mxGeometry x="590" y="465" width="120" height="60" as="geometry" />
        </mxCell>
        <mxCell id="k20uD03Ni8Eal_G298R1-35" style="edgeStyle=orthogonalEdgeStyle;rounded=0;orthogonalLoop=1;jettySize=auto;html=1;exitX=1;exitY=1;exitDx=0;exitDy=0;entryX=0;entryY=0.25;entryDx=0;entryDy=0;endArrow=none;endFill=0;" edge="1" parent="1" source="k20uD03Ni8Eal_G298R1-34" target="XK1nvMz3jrwBqo_m3qVX-53">
          <mxGeometry relative="1" as="geometry" />
        </mxCell>
        <mxCell id="k20uD03Ni8Eal_G298R1-34" value="&lt;span style=&quot;border-bottom: 1px dotted&quot;&gt;marketplace_id&lt;/span&gt;" style="ellipse;whiteSpace=wrap;html=1;align=center;" vertex="1" parent="1">
          <mxGeometry x="610" y="400" width="100" height="40" as="geometry" />
        </mxCell>
        <mxCell id="k20uD03Ni8Eal_G298R1-41" style="edgeStyle=orthogonalEdgeStyle;rounded=0;orthogonalLoop=1;jettySize=auto;html=1;exitX=1;exitY=0.5;exitDx=0;exitDy=0;entryX=0;entryY=0.5;entryDx=0;entryDy=0;endArrow=none;endFill=0;" edge="1" parent="1" source="k20uD03Ni8Eal_G298R1-36" target="3gaE-KXDp2KInn-WR0ou-22">
          <mxGeometry relative="1" as="geometry" />
        </mxCell>
        <mxCell id="k20uD03Ni8Eal_G298R1-36" value="game_market_id" style="ellipse;whiteSpace=wrap;html=1;align=center;fontStyle=4;" vertex="1" parent="1">
          <mxGeometry x="328.33" y="580" width="100" height="40" as="geometry" />
        </mxCell>
        <mxCell id="k20uD03Ni8Eal_G298R1-37" value="&lt;span style=&quot;border-bottom: 1px dotted&quot;&gt;marketplace_id&lt;/span&gt;" style="ellipse;whiteSpace=wrap;html=1;align=center;" vertex="1" parent="1">
          <mxGeometry x="440" y="660" width="100" height="40" as="geometry" />
        </mxCell>
        <mxCell id="k20uD03Ni8Eal_G298R1-40" style="edgeStyle=orthogonalEdgeStyle;rounded=0;orthogonalLoop=1;jettySize=auto;html=1;exitX=1;exitY=0.5;exitDx=0;exitDy=0;entryX=0;entryY=0.75;entryDx=0;entryDy=0;endArrow=none;endFill=0;" edge="1" parent="1" source="k20uD03Ni8Eal_G298R1-38" target="3gaE-KXDp2KInn-WR0ou-22">
          <mxGeometry relative="1" as="geometry" />
        </mxCell>
        <mxCell id="k20uD03Ni8Eal_G298R1-38" value="&lt;span style=&quot;border-bottom: 1px dotted&quot;&gt;game_id&lt;/span&gt;" style="ellipse;whiteSpace=wrap;html=1;align=center;" vertex="1" parent="1">
          <mxGeometry x="368.33000000000004" y="620" width="100" height="40" as="geometry" />
        </mxCell>
        <mxCell id="k20uD03Ni8Eal_G298R1-39" style="edgeStyle=orthogonalEdgeStyle;rounded=0;orthogonalLoop=1;jettySize=auto;html=1;exitX=1;exitY=0.5;exitDx=0;exitDy=0;endArrow=none;endFill=0;" edge="1" parent="1" source="k20uD03Ni8Eal_G298R1-37">
          <mxGeometry relative="1" as="geometry">
            <mxPoint x="639" y="650" as="targetPoint" />
          </mxGeometry>
        </mxCell>
        <mxCell id="k20uD03Ni8Eal_G298R1-50" style="edgeStyle=orthogonalEdgeStyle;rounded=0;orthogonalLoop=1;jettySize=auto;html=1;exitX=1;exitY=0.5;exitDx=0;exitDy=0;entryX=0;entryY=0.25;entryDx=0;entryDy=0;endArrow=none;endFill=0;" edge="1" parent="1" source="k20uD03Ni8Eal_G298R1-42" target="3gaE-KXDp2KInn-WR0ou-17">
          <mxGeometry relative="1" as="geometry" />
        </mxCell>
        <mxCell id="k20uD03Ni8Eal_G298R1-42" value="game_&lt;div&gt;collection_id&lt;/div&gt;" style="ellipse;whiteSpace=wrap;html=1;align=center;fontStyle=4;" vertex="1" parent="1">
          <mxGeometry x="-60" y="585" width="100" height="40" as="geometry" />
        </mxCell>
        <mxCell id="k20uD03Ni8Eal_G298R1-43" value="&lt;span style=&quot;border-bottom: 1px dotted&quot;&gt;game_&lt;/span&gt;&lt;div&gt;&lt;span style=&quot;border-bottom: 1px dotted&quot;&gt;subgroup_id&lt;/span&gt;&lt;/div&gt;" style="ellipse;whiteSpace=wrap;html=1;align=center;" vertex="1" parent="1">
          <mxGeometry x="-40" y="540" width="100" height="40" as="geometry" />
        </mxCell>
        <mxCell id="k20uD03Ni8Eal_G298R1-51" style="edgeStyle=orthogonalEdgeStyle;rounded=0;orthogonalLoop=1;jettySize=auto;html=1;exitX=1;exitY=1;exitDx=0;exitDy=0;entryX=0;entryY=1;entryDx=0;entryDy=0;endArrow=none;endFill=0;" edge="1" parent="1" source="k20uD03Ni8Eal_G298R1-44" target="3gaE-KXDp2KInn-WR0ou-17">
          <mxGeometry relative="1" as="geometry" />
        </mxCell>
        <mxCell id="k20uD03Ni8Eal_G298R1-44" value="&lt;span style=&quot;border-bottom: 1px dotted&quot;&gt;game_id&lt;/span&gt;" style="ellipse;whiteSpace=wrap;html=1;align=center;" vertex="1" parent="1">
          <mxGeometry x="-30" y="630" width="100" height="40" as="geometry" />
        </mxCell>
        <mxCell id="k20uD03Ni8Eal_G298R1-49" style="edgeStyle=orthogonalEdgeStyle;rounded=0;orthogonalLoop=1;jettySize=auto;html=1;exitX=1;exitY=0.5;exitDx=0;exitDy=0;entryX=0.161;entryY=0.059;entryDx=0;entryDy=0;entryPerimeter=0;endArrow=none;endFill=0;" edge="1" parent="1" source="k20uD03Ni8Eal_G298R1-43" target="3gaE-KXDp2KInn-WR0ou-17">
          <mxGeometry relative="1" as="geometry" />
        </mxCell>
        <mxCell id="k20uD03Ni8Eal_G298R1-56" style="edgeStyle=orthogonalEdgeStyle;rounded=0;orthogonalLoop=1;jettySize=auto;html=1;exitX=0;exitY=0.5;exitDx=0;exitDy=0;entryX=1;entryY=0.25;entryDx=0;entryDy=0;endArrow=none;endFill=0;" edge="1" parent="1" source="k20uD03Ni8Eal_G298R1-52" target="3gaE-KXDp2KInn-WR0ou-13">
          <mxGeometry relative="1" as="geometry" />
        </mxCell>
        <mxCell id="k20uD03Ni8Eal_G298R1-52" value="game_bundle_id" style="ellipse;whiteSpace=wrap;html=1;align=center;fontStyle=4;" vertex="1" parent="1">
          <mxGeometry x="990" y="630" width="100" height="40" as="geometry" />
        </mxCell>
        <mxCell id="k20uD03Ni8Eal_G298R1-58" style="edgeStyle=orthogonalEdgeStyle;rounded=0;orthogonalLoop=1;jettySize=auto;html=1;exitX=0;exitY=0;exitDx=0;exitDy=0;entryX=1;entryY=0.75;entryDx=0;entryDy=0;endArrow=none;endFill=0;" edge="1" parent="1" source="k20uD03Ni8Eal_G298R1-53" target="3gaE-KXDp2KInn-WR0ou-13">
          <mxGeometry relative="1" as="geometry" />
        </mxCell>
        <mxCell id="k20uD03Ni8Eal_G298R1-53" value="&lt;span style=&quot;border-bottom: 1px dotted&quot;&gt;game_id&lt;/span&gt;" style="ellipse;whiteSpace=wrap;html=1;align=center;" vertex="1" parent="1">
          <mxGeometry x="960" y="680" width="100" height="40" as="geometry" />
        </mxCell>
        <mxCell id="k20uD03Ni8Eal_G298R1-55" style="edgeStyle=orthogonalEdgeStyle;rounded=0;orthogonalLoop=1;jettySize=auto;html=1;exitX=0;exitY=0.5;exitDx=0;exitDy=0;entryX=1;entryY=0;entryDx=0;entryDy=0;endArrow=none;endFill=0;" edge="1" parent="1" source="k20uD03Ni8Eal_G298R1-54" target="3gaE-KXDp2KInn-WR0ou-13">
          <mxGeometry relative="1" as="geometry" />
        </mxCell>
        <mxCell id="k20uD03Ni8Eal_G298R1-54" value="&lt;span style=&quot;border-bottom: 1px dotted&quot;&gt;bundle_id&lt;/span&gt;" style="ellipse;whiteSpace=wrap;html=1;align=center;" vertex="1" parent="1">
          <mxGeometry x="970" y="585" width="100" height="40" as="geometry" />
        </mxCell>
        <mxCell id="k20uD03Ni8Eal_G298R1-65" style="edgeStyle=orthogonalEdgeStyle;rounded=0;orthogonalLoop=1;jettySize=auto;html=1;exitX=0;exitY=0.5;exitDx=0;exitDy=0;entryX=1;entryY=0.5;entryDx=0;entryDy=0;endArrow=none;endFill=0;" edge="1" parent="1" source="k20uD03Ni8Eal_G298R1-60" target="9mZkh-oFc15BfgS--x-H-22">
          <mxGeometry relative="1" as="geometry" />
        </mxCell>
        <mxCell id="k20uD03Ni8Eal_G298R1-60" value="user_bundle_id" style="ellipse;whiteSpace=wrap;html=1;align=center;fontStyle=4;" vertex="1" parent="1">
          <mxGeometry x="500" y="330" width="100" height="40" as="geometry" />
        </mxCell>
        <mxCell id="k20uD03Ni8Eal_G298R1-64" style="edgeStyle=orthogonalEdgeStyle;rounded=0;orthogonalLoop=1;jettySize=auto;html=1;exitX=0;exitY=1;exitDx=0;exitDy=0;endArrow=none;endFill=0;" edge="1" parent="1" source="k20uD03Ni8Eal_G298R1-61">
          <mxGeometry relative="1" as="geometry">
            <mxPoint x="470" y="320" as="targetPoint" />
          </mxGeometry>
        </mxCell>
        <mxCell id="k20uD03Ni8Eal_G298R1-61" value="&lt;span style=&quot;border-bottom: 1px dotted&quot;&gt;bundle_id&lt;/span&gt;" style="ellipse;whiteSpace=wrap;html=1;align=center;" vertex="1" parent="1">
          <mxGeometry x="560" y="280" width="100" height="40" as="geometry" />
        </mxCell>
        <mxCell id="k20uD03Ni8Eal_G298R1-63" style="edgeStyle=orthogonalEdgeStyle;rounded=0;orthogonalLoop=1;jettySize=auto;html=1;exitX=0;exitY=0.5;exitDx=0;exitDy=0;entryX=1;entryY=0.25;entryDx=0;entryDy=0;endArrow=none;endFill=0;" edge="1" parent="1" source="k20uD03Ni8Eal_G298R1-62" target="9mZkh-oFc15BfgS--x-H-22">
          <mxGeometry relative="1" as="geometry">
            <Array as="points">
              <mxPoint x="610" y="270" />
              <mxPoint x="510" y="270" />
              <mxPoint x="510" y="310" />
              <mxPoint x="468" y="310" />
            </Array>
          </mxGeometry>
        </mxCell>
        <mxCell id="k20uD03Ni8Eal_G298R1-62" value="&lt;span style=&quot;border-bottom: 1px dotted&quot;&gt;registered_&lt;/span&gt;&lt;div&gt;&lt;span style=&quot;border-bottom: 1px dotted&quot;&gt;user_id&lt;/span&gt;&lt;/div&gt;" style="ellipse;whiteSpace=wrap;html=1;align=center;" vertex="1" parent="1">
          <mxGeometry x="610" y="240" width="100" height="40" as="geometry" />
        </mxCell>
        <mxCell id="k20uD03Ni8Eal_G298R1-70" style="edgeStyle=orthogonalEdgeStyle;rounded=0;orthogonalLoop=1;jettySize=auto;html=1;exitX=0.5;exitY=0;exitDx=0;exitDy=0;entryX=0.25;entryY=1;entryDx=0;entryDy=0;endArrow=none;endFill=0;" edge="1" parent="1" source="k20uD03Ni8Eal_G298R1-67" target="9mZkh-oFc15BfgS--x-H-15">
          <mxGeometry relative="1" as="geometry" />
        </mxCell>
        <mxCell id="k20uD03Ni8Eal_G298R1-67" value="publisher_&lt;div&gt;platform_id&lt;/div&gt;" style="ellipse;whiteSpace=wrap;html=1;align=center;fontStyle=4;" vertex="1" parent="1">
          <mxGeometry x="-530" y="1400" width="100" height="40" as="geometry" />
        </mxCell>
        <mxCell id="k20uD03Ni8Eal_G298R1-72" style="edgeStyle=orthogonalEdgeStyle;rounded=0;orthogonalLoop=1;jettySize=auto;html=1;exitX=1;exitY=1;exitDx=0;exitDy=0;entryX=0;entryY=0.5;entryDx=0;entryDy=0;endArrow=none;endFill=0;" edge="1" parent="1" source="k20uD03Ni8Eal_G298R1-68" target="9mZkh-oFc15BfgS--x-H-15">
          <mxGeometry relative="1" as="geometry" />
        </mxCell>
        <mxCell id="k20uD03Ni8Eal_G298R1-68" value="&lt;span style=&quot;border-bottom: 1px dotted&quot;&gt;platform_id&lt;/span&gt;" style="ellipse;whiteSpace=wrap;html=1;align=center;" vertex="1" parent="1">
          <mxGeometry x="-600" y="1290" width="100" height="40" as="geometry" />
        </mxCell>
        <mxCell id="k20uD03Ni8Eal_G298R1-71" style="edgeStyle=orthogonalEdgeStyle;rounded=0;orthogonalLoop=1;jettySize=auto;html=1;exitX=0;exitY=0;exitDx=0;exitDy=0;entryX=0.75;entryY=1;entryDx=0;entryDy=0;endArrow=none;endFill=0;" edge="1" parent="1" source="k20uD03Ni8Eal_G298R1-69" target="9mZkh-oFc15BfgS--x-H-15">
          <mxGeometry relative="1" as="geometry" />
        </mxCell>
        <mxCell id="k20uD03Ni8Eal_G298R1-69" value="&lt;span style=&quot;border-bottom: 1px dotted&quot;&gt;publisher_id&lt;/span&gt;" style="ellipse;whiteSpace=wrap;html=1;align=center;" vertex="1" parent="1">
          <mxGeometry x="-360" y="1410" width="100" height="40" as="geometry" />
        </mxCell>
        <mxCell id="k20uD03Ni8Eal_G298R1-77" style="edgeStyle=orthogonalEdgeStyle;rounded=0;orthogonalLoop=1;jettySize=auto;html=1;exitX=0;exitY=0;exitDx=0;exitDy=0;entryX=1;entryY=0.5;entryDx=0;entryDy=0;endArrow=none;endFill=0;" edge="1" parent="1" source="k20uD03Ni8Eal_G298R1-73" target="3gaE-KXDp2KInn-WR0ou-41">
          <mxGeometry relative="1" as="geometry" />
        </mxCell>
        <mxCell id="k20uD03Ni8Eal_G298R1-73" value="publisher_&lt;div&gt;genre_id&lt;/div&gt;" style="ellipse;whiteSpace=wrap;html=1;align=center;fontStyle=4;" vertex="1" parent="1">
          <mxGeometry x="1730" y="515" width="100" height="40" as="geometry" />
        </mxCell>
        <mxCell id="k20uD03Ni8Eal_G298R1-76" style="edgeStyle=orthogonalEdgeStyle;rounded=0;orthogonalLoop=1;jettySize=auto;html=1;exitX=0;exitY=0.5;exitDx=0;exitDy=0;entryX=1;entryY=0.25;entryDx=0;entryDy=0;endArrow=none;endFill=0;" edge="1" parent="1" source="k20uD03Ni8Eal_G298R1-74" target="3gaE-KXDp2KInn-WR0ou-41">
          <mxGeometry relative="1" as="geometry" />
        </mxCell>
        <mxCell id="k20uD03Ni8Eal_G298R1-74" value="&lt;span style=&quot;border-bottom: 1px dotted&quot;&gt;genre_id&lt;/span&gt;" style="ellipse;whiteSpace=wrap;html=1;align=center;" vertex="1" parent="1">
          <mxGeometry x="1730" y="420" width="100" height="40" as="geometry" />
        </mxCell>
        <mxCell id="k20uD03Ni8Eal_G298R1-78" style="edgeStyle=orthogonalEdgeStyle;rounded=0;orthogonalLoop=1;jettySize=auto;html=1;exitX=0.5;exitY=0;exitDx=0;exitDy=0;entryX=0.75;entryY=1;entryDx=0;entryDy=0;endArrow=none;endFill=0;" edge="1" parent="1" source="k20uD03Ni8Eal_G298R1-75" target="3gaE-KXDp2KInn-WR0ou-41">
          <mxGeometry relative="1" as="geometry" />
        </mxCell>
        <mxCell id="k20uD03Ni8Eal_G298R1-75" value="&lt;span style=&quot;border-bottom: 1px dotted&quot;&gt;publisher_id&lt;/span&gt;" style="ellipse;whiteSpace=wrap;html=1;align=center;" vertex="1" parent="1">
          <mxGeometry x="1640" y="580" width="100" height="40" as="geometry" />
        </mxCell>
        <mxCell id="k20uD03Ni8Eal_G298R1-82" style="edgeStyle=orthogonalEdgeStyle;rounded=0;orthogonalLoop=1;jettySize=auto;html=1;exitX=0.5;exitY=0;exitDx=0;exitDy=0;entryX=0.25;entryY=1;entryDx=0;entryDy=0;endArrow=none;endFill=0;" edge="1" parent="1" source="k20uD03Ni8Eal_G298R1-79" target="9mZkh-oFc15BfgS--x-H-14">
          <mxGeometry relative="1" as="geometry" />
        </mxCell>
        <mxCell id="k20uD03Ni8Eal_G298R1-79" value="developer_&lt;div&gt;platform_id&lt;/div&gt;" style="ellipse;whiteSpace=wrap;html=1;align=center;fontStyle=4;" vertex="1" parent="1">
          <mxGeometry x="-320" y="1110" width="100" height="40" as="geometry" />
        </mxCell>
        <mxCell id="k20uD03Ni8Eal_G298R1-84" style="edgeStyle=orthogonalEdgeStyle;rounded=0;orthogonalLoop=1;jettySize=auto;html=1;exitX=1;exitY=0;exitDx=0;exitDy=0;entryX=0;entryY=0.75;entryDx=0;entryDy=0;endArrow=none;endFill=0;" edge="1" parent="1" source="k20uD03Ni8Eal_G298R1-80" target="9mZkh-oFc15BfgS--x-H-14">
          <mxGeometry relative="1" as="geometry" />
        </mxCell>
        <mxCell id="k20uD03Ni8Eal_G298R1-80" value="&lt;span style=&quot;border-bottom: 1px dotted&quot;&gt;platform_id&lt;/span&gt;" style="ellipse;whiteSpace=wrap;html=1;align=center;" vertex="1" parent="1">
          <mxGeometry x="-370" y="1030" width="100" height="40" as="geometry" />
        </mxCell>
        <mxCell id="k20uD03Ni8Eal_G298R1-83" style="edgeStyle=orthogonalEdgeStyle;rounded=0;orthogonalLoop=1;jettySize=auto;html=1;exitX=0.5;exitY=0;exitDx=0;exitDy=0;entryX=0.75;entryY=1;entryDx=0;entryDy=0;endArrow=none;endFill=0;" edge="1" parent="1" source="k20uD03Ni8Eal_G298R1-81" target="9mZkh-oFc15BfgS--x-H-14">
          <mxGeometry relative="1" as="geometry" />
        </mxCell>
        <mxCell id="k20uD03Ni8Eal_G298R1-81" value="&lt;span style=&quot;border-bottom: 1px dotted&quot;&gt;developer_id&lt;/span&gt;" style="ellipse;whiteSpace=wrap;html=1;align=center;" vertex="1" parent="1">
          <mxGeometry x="-208.32999999999998" y="1110" width="100" height="40" as="geometry" />
        </mxCell>
        <mxCell id="k20uD03Ni8Eal_G298R1-89" style="edgeStyle=orthogonalEdgeStyle;rounded=0;orthogonalLoop=1;jettySize=auto;html=1;exitX=0;exitY=0;exitDx=0;exitDy=0;entryX=0.75;entryY=1;entryDx=0;entryDy=0;endArrow=none;endFill=0;" edge="1" parent="1" source="k20uD03Ni8Eal_G298R1-85" target="3gaE-KXDp2KInn-WR0ou-35">
          <mxGeometry relative="1" as="geometry" />
        </mxCell>
        <mxCell id="k20uD03Ni8Eal_G298R1-85" value="developer_&lt;div&gt;genre_id&lt;/div&gt;" style="ellipse;whiteSpace=wrap;html=1;align=center;fontStyle=4;" vertex="1" parent="1">
          <mxGeometry x="1370" y="465" width="100" height="40" as="geometry" />
        </mxCell>
        <mxCell id="k20uD03Ni8Eal_G298R1-90" style="edgeStyle=orthogonalEdgeStyle;rounded=0;orthogonalLoop=1;jettySize=auto;html=1;exitX=0.5;exitY=0;exitDx=0;exitDy=0;entryX=0.5;entryY=1;entryDx=0;entryDy=0;endArrow=none;endFill=0;" edge="1" parent="1" source="k20uD03Ni8Eal_G298R1-86" target="3gaE-KXDp2KInn-WR0ou-35">
          <mxGeometry relative="1" as="geometry" />
        </mxCell>
        <mxCell id="k20uD03Ni8Eal_G298R1-86" value="&lt;span style=&quot;border-bottom: 1px dotted&quot;&gt;developer_id&lt;/span&gt;" style="ellipse;whiteSpace=wrap;html=1;align=center;" vertex="1" parent="1">
          <mxGeometry x="1240" y="540" width="100" height="40" as="geometry" />
        </mxCell>
        <mxCell id="k20uD03Ni8Eal_G298R1-88" style="edgeStyle=orthogonalEdgeStyle;rounded=0;orthogonalLoop=1;jettySize=auto;html=1;exitX=0;exitY=1;exitDx=0;exitDy=0;entryX=1;entryY=0.75;entryDx=0;entryDy=0;endArrow=none;endFill=0;" edge="1" parent="1" source="k20uD03Ni8Eal_G298R1-87" target="3gaE-KXDp2KInn-WR0ou-35">
          <mxGeometry relative="1" as="geometry" />
        </mxCell>
        <mxCell id="k20uD03Ni8Eal_G298R1-87" value="&lt;span style=&quot;border-bottom: 1px dotted&quot;&gt;genre_id&lt;/span&gt;" style="ellipse;whiteSpace=wrap;html=1;align=center;" vertex="1" parent="1">
          <mxGeometry x="1390" y="350" width="100" height="40" as="geometry" />
        </mxCell>
        <mxCell id="k20uD03Ni8Eal_G298R1-92" value="" style="endArrow=ERzeroToMany;html=1;rounded=0;entryX=0;entryY=0.25;entryDx=0;entryDy=0;endFill=0;" edge="1" parent="1" target="k20uD03Ni8Eal_G298R1-101">
          <mxGeometry relative="1" as="geometry">
            <mxPoint x="-480" y="180" as="sourcePoint" />
            <mxPoint x="-350" y="180" as="targetPoint" />
          </mxGeometry>
        </mxCell>
        <mxCell id="k20uD03Ni8Eal_G298R1-93" value="" style="endArrow=none;html=1;rounded=0;entryX=1;entryY=0;entryDx=0;entryDy=0;" edge="1" parent="1" target="k20uD03Ni8Eal_G298R1-98">
          <mxGeometry relative="1" as="geometry">
            <mxPoint x="-480" y="180" as="sourcePoint" />
            <mxPoint x="-480" y="520" as="targetPoint" />
          </mxGeometry>
        </mxCell>
        <mxCell id="k20uD03Ni8Eal_G298R1-94" value="" style="endArrow=none;html=1;rounded=0;exitX=0;exitY=1;exitDx=0;exitDy=0;" edge="1" parent="1" source="k20uD03Ni8Eal_G298R1-98">
          <mxGeometry relative="1" as="geometry">
            <mxPoint x="-570" y="530" as="sourcePoint" />
            <mxPoint x="-600" y="520" as="targetPoint" />
          </mxGeometry>
        </mxCell>
        <mxCell id="k20uD03Ni8Eal_G298R1-95" value="" style="endArrow=none;html=1;rounded=0;" edge="1" parent="1">
          <mxGeometry relative="1" as="geometry">
            <mxPoint x="-600" y="520" as="sourcePoint" />
            <mxPoint x="-600" y="880" as="targetPoint" />
          </mxGeometry>
        </mxCell>
        <mxCell id="k20uD03Ni8Eal_G298R1-96" value="" style="edgeStyle=entityRelationEdgeStyle;fontSize=12;html=1;endArrow=ERone;endFill=0;rounded=0;entryX=0;entryY=0.5;entryDx=0;entryDy=0;" edge="1" parent="1" target="XgH2uq8EYfYxta0Vq5KT-13">
          <mxGeometry width="100" height="100" relative="1" as="geometry">
            <mxPoint x="-600" y="880" as="sourcePoint" />
            <mxPoint x="-470" y="720" as="targetPoint" />
          </mxGeometry>
        </mxCell>
        <mxCell id="k20uD03Ni8Eal_G298R1-97" value="Enroll In" style="shape=rhombus;perimeter=rhombusPerimeter;whiteSpace=wrap;html=1;align=center;" vertex="1" parent="1">
          <mxGeometry x="-160" y="200" width="120" height="60" as="geometry" />
        </mxCell>
        <mxCell id="k20uD03Ni8Eal_G298R1-98" value="Associated With" style="shape=rhombus;perimeter=rhombusPerimeter;whiteSpace=wrap;html=1;align=center;" vertex="1" parent="1">
          <mxGeometry x="-620" y="435" width="120" height="60" as="geometry" />
        </mxCell>
        <mxCell id="k20uD03Ni8Eal_G298R1-100" style="edgeStyle=orthogonalEdgeStyle;rounded=0;orthogonalLoop=1;jettySize=auto;html=1;exitX=0.5;exitY=0;exitDx=0;exitDy=0;entryX=1;entryY=0.75;entryDx=0;entryDy=0;endArrow=none;endFill=0;" edge="1" parent="1" source="k20uD03Ni8Eal_G298R1-99" target="k20uD03Ni8Eal_G298R1-101">
          <mxGeometry relative="1" as="geometry">
            <mxPoint x="-275" y="200" as="targetPoint" />
          </mxGeometry>
        </mxCell>
        <mxCell id="k20uD03Ni8Eal_G298R1-99" value="&lt;span style=&quot;border-bottom: 1px dotted&quot;&gt;platform_id&lt;/span&gt;" style="ellipse;whiteSpace=wrap;html=1;align=center;" vertex="1" parent="1">
          <mxGeometry x="-280" y="240" width="100" height="40" as="geometry" />
        </mxCell>
        <mxCell id="k20uD03Ni8Eal_G298R1-101" value="Game Guild" style="shape=ext;margin=3;double=1;whiteSpace=wrap;html=1;align=center;" vertex="1" parent="1">
          <mxGeometry x="-370" y="170" width="100" height="40" as="geometry" />
        </mxCell>
        <mxCell id="k20uD03Ni8Eal_G298R1-103" style="edgeStyle=orthogonalEdgeStyle;rounded=0;orthogonalLoop=1;jettySize=auto;html=1;exitX=0;exitY=1;exitDx=0;exitDy=0;endArrow=none;endFill=0;" edge="1" parent="1" source="k20uD03Ni8Eal_G298R1-102">
          <mxGeometry relative="1" as="geometry">
            <mxPoint x="289.99999999999955" y="30" as="targetPoint" />
          </mxGeometry>
        </mxCell>
        <mxCell id="k20uD03Ni8Eal_G298R1-102" value="&lt;span style=&quot;border-bottom: 1px dotted&quot;&gt;game_guild_id&lt;/span&gt;" style="ellipse;whiteSpace=wrap;html=1;align=center;" vertex="1" parent="1">
          <mxGeometry x="310" y="-50" width="100" height="40" as="geometry" />
        </mxCell>
        <mxCell id="k20uD03Ni8Eal_G298R1-105" style="edgeStyle=orthogonalEdgeStyle;rounded=0;orthogonalLoop=1;jettySize=auto;html=1;exitX=0.5;exitY=1;exitDx=0;exitDy=0;entryX=0.75;entryY=0;entryDx=0;entryDy=0;endArrow=ERone;endFill=0;" edge="1" parent="1" source="k20uD03Ni8Eal_G298R1-104" target="XgH2uq8EYfYxta0Vq5KT-13">
          <mxGeometry relative="1" as="geometry" />
        </mxCell>
        <mxCell id="k20uD03Ni8Eal_G298R1-106" style="edgeStyle=orthogonalEdgeStyle;rounded=0;orthogonalLoop=1;jettySize=auto;html=1;exitX=1;exitY=0;exitDx=0;exitDy=0;endArrow=ERzeroToMany;endFill=0;" edge="1" parent="1" source="k20uD03Ni8Eal_G298R1-104" target="XK1nvMz3jrwBqo_m3qVX-112">
          <mxGeometry relative="1" as="geometry">
            <mxPoint x="-320" y="410" as="targetPoint" />
            <Array as="points">
              <mxPoint x="-380" y="590" />
              <mxPoint x="-380" y="560" />
              <mxPoint x="-290" y="560" />
            </Array>
          </mxGeometry>
        </mxCell>
        <mxCell id="k20uD03Ni8Eal_G298R1-104" value="Associated With" style="shape=rhombus;perimeter=rhombusPerimeter;whiteSpace=wrap;html=1;align=center;" vertex="1" parent="1">
          <mxGeometry x="-510" y="575" width="120" height="60" as="geometry" />
        </mxCell>
        <mxCell id="k20uD03Ni8Eal_G298R1-107" value="Associated With" style="shape=rhombus;perimeter=rhombusPerimeter;whiteSpace=wrap;html=1;align=center;" vertex="1" parent="1">
          <mxGeometry x="-250" y="660" width="120" height="60" as="geometry" />
        </mxCell>
        <mxCell id="k20uD03Ni8Eal_G298R1-113" style="edgeStyle=orthogonalEdgeStyle;rounded=0;orthogonalLoop=1;jettySize=auto;html=1;exitX=1;exitY=0.5;exitDx=0;exitDy=0;entryX=0;entryY=0.75;entryDx=0;entryDy=0;endArrow=none;endFill=0;" edge="1" parent="1" source="k20uD03Ni8Eal_G298R1-108" target="XK1nvMz3jrwBqo_m3qVX-112">
          <mxGeometry relative="1" as="geometry" />
        </mxCell>
        <mxCell id="k20uD03Ni8Eal_G298R1-108" value="game_party_id" style="ellipse;whiteSpace=wrap;html=1;align=center;fontStyle=4;" vertex="1" parent="1">
          <mxGeometry x="-475" y="420" width="100" height="40" as="geometry" />
        </mxCell>
        <mxCell id="k20uD03Ni8Eal_G298R1-114" style="edgeStyle=orthogonalEdgeStyle;rounded=0;orthogonalLoop=1;jettySize=auto;html=1;exitX=1;exitY=0.5;exitDx=0;exitDy=0;endArrow=none;endFill=0;" edge="1" parent="1" source="k20uD03Ni8Eal_G298R1-109">
          <mxGeometry relative="1" as="geometry">
            <mxPoint x="-300" y="390" as="targetPoint" />
          </mxGeometry>
        </mxCell>
        <mxCell id="k20uD03Ni8Eal_G298R1-109" value="&lt;span style=&quot;border-bottom: 1px dotted&quot;&gt;game_guild_id&lt;/span&gt;" style="ellipse;whiteSpace=wrap;html=1;align=center;" vertex="1" parent="1">
          <mxGeometry x="-475" y="370" width="100" height="40" as="geometry" />
        </mxCell>
        <mxCell id="k20uD03Ni8Eal_G298R1-112" style="edgeStyle=orthogonalEdgeStyle;rounded=0;orthogonalLoop=1;jettySize=auto;html=1;exitX=1;exitY=0.5;exitDx=0;exitDy=0;entryX=0;entryY=1;entryDx=0;entryDy=0;endArrow=none;endFill=0;" edge="1" parent="1" source="k20uD03Ni8Eal_G298R1-110" target="XK1nvMz3jrwBqo_m3qVX-112">
          <mxGeometry relative="1" as="geometry" />
        </mxCell>
        <mxCell id="k20uD03Ni8Eal_G298R1-110" value="&lt;span style=&quot;border-bottom: 1px dotted&quot;&gt;game_id&lt;/span&gt;" style="ellipse;whiteSpace=wrap;html=1;align=center;" vertex="1" parent="1">
          <mxGeometry x="-475" y="470" width="100" height="40" as="geometry" />
        </mxCell>
        <mxCell id="k20uD03Ni8Eal_G298R1-115" style="edgeStyle=orthogonalEdgeStyle;rounded=0;orthogonalLoop=1;jettySize=auto;html=1;exitX=1;exitY=0.5;exitDx=0;exitDy=0;endArrow=none;endFill=0;" edge="1" parent="1" source="k20uD03Ni8Eal_G298R1-111">
          <mxGeometry relative="1" as="geometry">
            <mxPoint x="-340" y="390" as="targetPoint" />
          </mxGeometry>
        </mxCell>
        <mxCell id="k20uD03Ni8Eal_G298R1-111" value="&lt;span style=&quot;border-bottom: 1px dotted&quot;&gt;platform_id&lt;/span&gt;" style="ellipse;whiteSpace=wrap;html=1;align=center;" vertex="1" parent="1">
          <mxGeometry x="-475" y="320" width="100" height="40" as="geometry" />
        </mxCell>
        <mxCell id="k20uD03Ni8Eal_G298R1-122" style="edgeStyle=orthogonalEdgeStyle;rounded=0;orthogonalLoop=1;jettySize=auto;html=1;exitX=1;exitY=0;exitDx=0;exitDy=0;entryX=0.25;entryY=1;entryDx=0;entryDy=0;endArrow=none;endFill=0;" edge="1" parent="1" source="k20uD03Ni8Eal_G298R1-119" target="FCDMfgkC4RyhxdJMBdM--23">
          <mxGeometry relative="1" as="geometry" />
        </mxCell>
        <mxCell id="k20uD03Ni8Eal_G298R1-119" value="game_genre_id" style="ellipse;whiteSpace=wrap;html=1;align=center;fontStyle=4;" vertex="1" parent="1">
          <mxGeometry x="980" y="850" width="100" height="40" as="geometry" />
        </mxCell>
        <mxCell id="k20uD03Ni8Eal_G298R1-124" style="edgeStyle=orthogonalEdgeStyle;rounded=0;orthogonalLoop=1;jettySize=auto;html=1;exitX=1;exitY=0;exitDx=0;exitDy=0;entryX=0;entryY=0.75;entryDx=0;entryDy=0;endArrow=none;endFill=0;" edge="1" parent="1" source="k20uD03Ni8Eal_G298R1-120" target="FCDMfgkC4RyhxdJMBdM--23">
          <mxGeometry relative="1" as="geometry" />
        </mxCell>
        <mxCell id="k20uD03Ni8Eal_G298R1-120" value="&lt;span style=&quot;border-bottom: 1px dotted&quot;&gt;game_id&lt;/span&gt;" style="ellipse;whiteSpace=wrap;html=1;align=center;" vertex="1" parent="1">
          <mxGeometry x="890" y="790" width="100" height="40" as="geometry" />
        </mxCell>
        <mxCell id="k20uD03Ni8Eal_G298R1-123" style="edgeStyle=orthogonalEdgeStyle;rounded=0;orthogonalLoop=1;jettySize=auto;html=1;exitX=0.5;exitY=0;exitDx=0;exitDy=0;entryX=0.75;entryY=1;entryDx=0;entryDy=0;endArrow=none;endFill=0;" edge="1" parent="1" source="k20uD03Ni8Eal_G298R1-121" target="FCDMfgkC4RyhxdJMBdM--23">
          <mxGeometry relative="1" as="geometry" />
        </mxCell>
        <mxCell id="k20uD03Ni8Eal_G298R1-121" value="&lt;span style=&quot;border-bottom: 1px dotted&quot;&gt;genre_id&lt;/span&gt;" style="ellipse;whiteSpace=wrap;html=1;align=center;" vertex="1" parent="1">
          <mxGeometry x="1110" y="860" width="100" height="40" as="geometry" />
        </mxCell>
        <mxCell id="k20uD03Ni8Eal_G298R1-133" style="edgeStyle=orthogonalEdgeStyle;rounded=0;orthogonalLoop=1;jettySize=auto;html=1;exitX=0;exitY=1;exitDx=0;exitDy=0;entryX=0.75;entryY=0;entryDx=0;entryDy=0;endArrow=none;endFill=0;" edge="1" parent="1" source="k20uD03Ni8Eal_G298R1-128" target="FCDMfgkC4RyhxdJMBdM--3">
          <mxGeometry relative="1" as="geometry">
            <Array as="points">
              <mxPoint x="-110" y="474" />
              <mxPoint x="-110" y="540" />
            </Array>
          </mxGeometry>
        </mxCell>
        <mxCell id="k20uD03Ni8Eal_G298R1-128" value="game_&lt;div&gt;ownership_id&lt;/div&gt;" style="ellipse;whiteSpace=wrap;html=1;align=center;fontStyle=4;" vertex="1" parent="1">
          <mxGeometry x="-70" y="440" width="100" height="40" as="geometry" />
        </mxCell>
        <mxCell id="k20uD03Ni8Eal_G298R1-129" value="&lt;span style=&quot;border-bottom: 1px dotted&quot;&gt;registered_&lt;/span&gt;&lt;div&gt;&lt;span style=&quot;border-bottom: 1px dotted&quot;&gt;user_id&lt;/span&gt;&lt;/div&gt;" style="ellipse;whiteSpace=wrap;html=1;align=center;" vertex="1" parent="1">
          <mxGeometry x="-170" y="420" width="100" height="40" as="geometry" />
        </mxCell>
        <mxCell id="k20uD03Ni8Eal_G298R1-134" style="edgeStyle=orthogonalEdgeStyle;rounded=0;orthogonalLoop=1;jettySize=auto;html=1;exitX=0;exitY=0.5;exitDx=0;exitDy=0;entryX=1;entryY=0;entryDx=0;entryDy=0;endArrow=none;endFill=0;" edge="1" parent="1" source="k20uD03Ni8Eal_G298R1-130" target="FCDMfgkC4RyhxdJMBdM--3">
          <mxGeometry relative="1" as="geometry" />
        </mxCell>
        <mxCell id="k20uD03Ni8Eal_G298R1-130" value="&lt;span style=&quot;border-bottom: 1px dotted&quot;&gt;game_id&lt;/span&gt;" style="ellipse;whiteSpace=wrap;html=1;align=center;" vertex="1" parent="1">
          <mxGeometry x="-39.999999999999986" y="490" width="100" height="40" as="geometry" />
        </mxCell>
        <mxCell id="k20uD03Ni8Eal_G298R1-131" style="edgeStyle=orthogonalEdgeStyle;rounded=0;orthogonalLoop=1;jettySize=auto;html=1;exitX=0.5;exitY=1;exitDx=0;exitDy=0;entryX=0.436;entryY=0.047;entryDx=0;entryDy=0;entryPerimeter=0;endArrow=none;endFill=0;" edge="1" parent="1" source="k20uD03Ni8Eal_G298R1-129" target="FCDMfgkC4RyhxdJMBdM--3">
          <mxGeometry relative="1" as="geometry" />
        </mxCell>
        <mxCell id="k20uD03Ni8Eal_G298R1-137" style="edgeStyle=orthogonalEdgeStyle;rounded=0;orthogonalLoop=1;jettySize=auto;html=1;exitX=0.5;exitY=1;exitDx=0;exitDy=0;entryX=0.5;entryY=0;entryDx=0;entryDy=0;endArrow=none;endFill=0;" edge="1" parent="1" source="k20uD03Ni8Eal_G298R1-136" target="FCDMfgkC4RyhxdJMBdM--15">
          <mxGeometry relative="1" as="geometry" />
        </mxCell>
        <mxCell id="k20uD03Ni8Eal_G298R1-136" value="&lt;span style=&quot;border-bottom: 1px dotted&quot;&gt;registered_&lt;/span&gt;&lt;div&gt;&lt;span style=&quot;border-bottom: 1px dotted&quot;&gt;user_id&lt;/span&gt;&lt;/div&gt;" style="ellipse;whiteSpace=wrap;html=1;align=center;" vertex="1" parent="1">
          <mxGeometry x="420" y="-150" width="100" height="40" as="geometry" />
        </mxCell>
        <mxCell id="k20uD03Ni8Eal_G298R1-141" style="edgeStyle=orthogonalEdgeStyle;rounded=0;orthogonalLoop=1;jettySize=auto;html=1;exitX=0.5;exitY=0;exitDx=0;exitDy=0;entryX=0.3;entryY=1;entryDx=0;entryDy=0;entryPerimeter=0;endArrow=ERzeroToMany;endFill=0;" edge="1" parent="1" source="k20uD03Ni8Eal_G298R1-138" target="k20uD03Ni8Eal_G298R1-8">
          <mxGeometry relative="1" as="geometry" />
        </mxCell>
        <mxCell id="k20uD03Ni8Eal_G298R1-143" style="edgeStyle=orthogonalEdgeStyle;rounded=0;orthogonalLoop=1;jettySize=auto;html=1;exitX=0.5;exitY=1;exitDx=0;exitDy=0;entryX=1;entryY=0;entryDx=0;entryDy=0;endArrow=none;endFill=0;" edge="1" parent="1" source="k20uD03Ni8Eal_G298R1-138" target="3gaE-KXDp2KInn-WR0ou-5">
          <mxGeometry relative="1" as="geometry" />
        </mxCell>
        <mxCell id="k20uD03Ni8Eal_G298R1-144" style="edgeStyle=orthogonalEdgeStyle;rounded=0;orthogonalLoop=1;jettySize=auto;html=1;exitX=0.5;exitY=1;exitDx=0;exitDy=0;entryX=0;entryY=0;entryDx=0;entryDy=0;endArrow=none;endFill=0;" edge="1" parent="1" source="k20uD03Ni8Eal_G298R1-138" target="3gaE-KXDp2KInn-WR0ou-9">
          <mxGeometry relative="1" as="geometry" />
        </mxCell>
        <mxCell id="k20uD03Ni8Eal_G298R1-138" value="Create" style="shape=rhombus;perimeter=rhombusPerimeter;whiteSpace=wrap;html=1;align=center;" vertex="1" parent="1">
          <mxGeometry x="60.00000000000006" y="940" width="120" height="60" as="geometry" />
        </mxCell>
        <mxCell id="k20uD03Ni8Eal_G298R1-145" value="" style="endArrow=none;dashed=1;html=1;rounded=0;" edge="1" parent="1">
          <mxGeometry width="50" height="50" relative="1" as="geometry">
            <mxPoint x="-60" y="1040" as="sourcePoint" />
            <mxPoint x="320" y="1040" as="targetPoint" />
          </mxGeometry>
        </mxCell>
        <mxCell id="k20uD03Ni8Eal_G298R1-146" value="" style="endArrow=none;dashed=1;html=1;rounded=0;" edge="1" parent="1">
          <mxGeometry width="50" height="50" relative="1" as="geometry">
            <mxPoint x="-60" y="1040" as="sourcePoint" />
            <mxPoint x="-60" y="1400" as="targetPoint" />
          </mxGeometry>
        </mxCell>
        <mxCell id="k20uD03Ni8Eal_G298R1-147" value="" style="endArrow=none;dashed=1;html=1;rounded=0;" edge="1" parent="1">
          <mxGeometry width="50" height="50" relative="1" as="geometry">
            <mxPoint x="320" y="1040" as="sourcePoint" />
            <mxPoint x="320" y="1400" as="targetPoint" />
          </mxGeometry>
        </mxCell>
        <mxCell id="k20uD03Ni8Eal_G298R1-148" value="" style="endArrow=none;dashed=1;html=1;rounded=0;" edge="1" parent="1">
          <mxGeometry width="50" height="50" relative="1" as="geometry">
            <mxPoint x="-60" y="1400" as="sourcePoint" />
            <mxPoint x="320" y="1400" as="targetPoint" />
          </mxGeometry>
        </mxCell>
      </root>
    </mxGraphModel>
  </diagram>
</mxfile>
